<svg xmlns="http://www.w3.org/2000/svg" width="104" height="104" viewBox="0 0 104 104">
  <g id="videollamada" transform="translate(-1 -1)">
    <path id="Trazado_1046648" data-name="Trazado 1046648" d="M99.054,24.561a14.951,14.951,0,0,0,.914-5.109C99.968,9.278,89.434,1,76.484,1S53,9.278,53,19.452a14.956,14.956,0,0,0,.884,5.032H7.71A6.71,6.71,0,0,0,1,31.194v52A6.71,6.71,0,0,0,7.71,89.9H42.464l-.839,3.355H37.9a5.032,5.032,0,0,0-5.032,5.032v5.032A1.677,1.677,0,0,0,34.548,105h36.9a1.677,1.677,0,0,0,1.677-1.677V98.29A5.032,5.032,0,0,0,68.1,93.258H64.375L63.536,89.9H98.29a6.71,6.71,0,0,0,6.71-6.71v-52A6.7,6.7,0,0,0,99.054,24.561Zm-.763,3.278a3.355,3.355,0,0,1,3.355,3.355V51.323H71.452V37.447c.153.025.3.062.455.086l3.076,6.153a1.677,1.677,0,0,0,3,0l3.076-6.153a23.412,23.412,0,0,0,16.35-9.694Zm-15.1,36.9A3.355,3.355,0,1,1,86.548,68.1,3.355,3.355,0,0,1,83.194,64.742Zm3.355,6.71a6.71,6.71,0,0,1,6.71,6.71H79.839A6.71,6.71,0,0,1,86.548,71.452Zm4.853-2.1a6.71,6.71,0,1,0-9.706,0,10.065,10.065,0,0,0-5.212,8.811H71.452V54.677h30.194V78.161H96.613A10.064,10.064,0,0,0,91.4,69.35ZM49.645,64.742A3.355,3.355,0,1,1,53,68.1,3.355,3.355,0,0,1,49.645,64.742ZM53,71.452a6.71,6.71,0,0,1,6.71,6.71H46.29A6.71,6.71,0,0,1,53,71.452Zm4.853-2.1a6.71,6.71,0,1,0-9.706,0,10.065,10.065,0,0,0-5.212,8.811H37.9V54.677H68.1V78.161H63.065A10.065,10.065,0,0,0,57.853,69.35ZM16.1,64.742A3.355,3.355,0,1,1,19.452,68.1,3.355,3.355,0,0,1,16.1,64.742Zm3.355,6.71a6.71,6.71,0,0,1,6.71,6.71H12.742a6.71,6.71,0,0,1,6.71-6.71Zm4.853-2.1a6.71,6.71,0,1,0-9.706,0,10.065,10.065,0,0,0-5.212,8.811H4.355V54.677H34.548V78.161H29.516A10.065,10.065,0,0,0,24.3,69.35ZM16.1,37.9a3.355,3.355,0,1,1,3.355,3.355A3.355,3.355,0,0,1,16.1,37.9Zm3.355,6.71a6.71,6.71,0,0,1,6.71,6.71H12.742a6.71,6.71,0,0,1,6.71-6.71ZM49.645,37.9A3.355,3.355,0,1,1,53,41.258,3.355,3.355,0,0,1,49.645,37.9ZM53,44.613a6.71,6.71,0,0,1,6.71,6.71H46.29A6.71,6.71,0,0,1,53,44.613ZM76.484,4.355c11.1,0,20.129,6.772,20.129,15.1,0,7.3-7.25,13.691-16.863,14.877a1.677,1.677,0,0,0-1.295.914l-1.971,3.942-1.971-3.942a1.677,1.677,0,0,0-1.295-.914c-9.613-1.186-16.863-7.58-16.863-14.877C56.355,11.127,65.384,4.355,76.484,4.355ZM68.1,36.677V51.323H63.065a10.064,10.064,0,0,0-5.212-8.811,6.71,6.71,0,1,0-9.706,0,10.065,10.065,0,0,0-5.212,8.811H37.9V27.839H55.556A22.226,22.226,0,0,0,68.1,36.677ZM7.71,27.839H34.548V51.323H29.516A10.065,10.065,0,0,0,24.3,42.511a6.71,6.71,0,1,0-9.706,0,10.065,10.065,0,0,0-5.212,8.811H4.355V31.194A3.355,3.355,0,0,1,7.71,27.839ZM69.774,98.29v3.355H36.226V98.29A1.677,1.677,0,0,1,37.9,96.613H68.1A1.677,1.677,0,0,1,69.774,98.29Zm-8.858-5.032H45.084l.839-3.355H60.077Zm37.375-6.71H7.71a3.355,3.355,0,0,1-3.355-3.355V81.516h97.29v1.677A3.355,3.355,0,0,1,98.29,86.548Z" transform="translate(0 0)" fill="#7351fa"/>
    <rect id="Rectángulo_425165" data-name="Rectángulo 425165" width="3.355" height="3.355" transform="translate(64.742 17.774)" fill="#7351fa"/>
    <rect id="Rectángulo_425166" data-name="Rectángulo 425166" width="3.355" height="3.355" transform="translate(71.452 17.774)" fill="#7351fa"/>
    <rect id="Rectángulo_425167" data-name="Rectángulo 425167" width="3.355" height="3.355" transform="translate(78.161 17.774)" fill="#7351fa"/>
    <rect id="Rectángulo_425168" data-name="Rectángulo 425168" width="3.355" height="3.355" transform="translate(84.871 17.774)" fill="#7351fa"/>
  </g>
</svg>
