<svg id="valoracion" xmlns="http://www.w3.org/2000/svg" width="112.129" height="75.581" viewBox="0 0 112.129 75.581">
  <path id="Trazado_1046639" data-name="Trazado 1046639" d="M47.154,20.95H7.894A7.9,7.9,0,0,1,0,13.056V8.394A7.9,7.9,0,0,1,7.894.5H40.212a1.643,1.643,0,1,1,0,3.285H7.894A4.614,4.614,0,0,0,3.285,8.394v4.661a4.614,4.614,0,0,0,4.609,4.609H47.154a6.94,6.94,0,1,0,0-13.88,1.643,1.643,0,1,1,0-3.285,10.225,10.225,0,1,1,0,20.45Zm0,0" transform="translate(0 -0.5)" fill="#7351fa"/>
  <path id="Trazado_1046640" data-name="Trazado 1046640" d="M284.125,26.63l-1.063-.559L282,26.63a3.618,3.618,0,0,1-5.25-3.814l.2-1.184-.861-.838a3.618,3.618,0,0,1,2-6.171l1.189-.173.532-1.077a3.618,3.618,0,0,1,6.489,0l.531,1.077,1.189.173a3.618,3.618,0,0,1,2.005,6.171l-.861.838.2,1.184a3.539,3.539,0,0,1-1.439,3.538A3.78,3.78,0,0,1,284.125,26.63Zm-1.063-4.057a1.644,1.644,0,0,1,.765.188A15.811,15.811,0,0,0,286,23.7a15.872,15.872,0,0,0-.216-2.36,1.642,1.642,0,0,1,.472-1.454,15.984,15.984,0,0,0,1.563-1.782,15.88,15.88,0,0,0-2.313-.524,1.64,1.64,0,0,1-1.236-.9,15.937,15.937,0,0,0-1.212-2.037,15.835,15.835,0,0,0-1.212,2.037,1.643,1.643,0,0,1-1.237.9,15.87,15.87,0,0,0-2.312.524,15.9,15.9,0,0,0,1.563,1.782,1.645,1.645,0,0,1,.472,1.454,15.872,15.872,0,0,0-.216,2.36,15.81,15.81,0,0,0,2.178-.935A1.644,1.644,0,0,1,283.062,22.573Zm0,0" transform="translate(-214.772 -8.978)" fill="#7351fa"/>
  <path id="Trazado_1046641" data-name="Trazado 1046641" d="M365.8,26.63l-1.063-.559-1.063.559a3.618,3.618,0,0,1-5.249-3.814l.2-1.184-.861-.838a3.618,3.618,0,0,1,2.005-6.171l1.189-.173.531-1.077a3.618,3.618,0,0,1,6.489,0l.532,1.077,1.189.173a3.618,3.618,0,0,1,2.005,6.171l-.861.838.2,1.184a3.5,3.5,0,0,1-1.439,3.538A3.588,3.588,0,0,1,365.8,26.63Zm-1.063-4.057a1.641,1.641,0,0,1,.764.188,15.811,15.811,0,0,0,2.178.935,15.872,15.872,0,0,0-.216-2.36,1.645,1.645,0,0,1,.472-1.454A15.9,15.9,0,0,0,369.5,18.1a15.871,15.871,0,0,0-2.312-.524,1.641,1.641,0,0,1-1.237-.9,15.841,15.841,0,0,0-1.212-2.037,15.933,15.933,0,0,0-1.212,2.037,1.642,1.642,0,0,1-1.236.9,15.845,15.845,0,0,0-2.312.524,15.892,15.892,0,0,0,1.562,1.782,1.645,1.645,0,0,1,.473,1.454,15.985,15.985,0,0,0-.217,2.36,15.823,15.823,0,0,0,2.179-.935A1.644,1.644,0,0,1,364.737,22.573Zm0,0" transform="translate(-278.56 -8.978)" fill="#7351fa"/>
  <path id="Trazado_1046642" data-name="Trazado 1046642" d="M447.475,26.63l-1.063-.559-1.063.559a3.618,3.618,0,0,1-5.249-3.814l.2-1.184-.86-.838a3.618,3.618,0,0,1,2.005-6.171l1.188-.173.532-1.077a3.617,3.617,0,0,1,6.488,0l.532,1.077,1.189.173a3.618,3.618,0,0,1,2.005,6.171l-.861.838.2,1.184a3.514,3.514,0,0,1-1.439,3.538A3.888,3.888,0,0,1,447.475,26.63Zm-1.063-4.057a1.644,1.644,0,0,1,.765.188,15.811,15.811,0,0,0,2.178.935,15.872,15.872,0,0,0-.216-2.36,1.642,1.642,0,0,1,.472-1.454,15.984,15.984,0,0,0,1.563-1.782,15.871,15.871,0,0,0-2.312-.524,1.638,1.638,0,0,1-1.236-.9,15.85,15.85,0,0,0-1.213-2.037,15.933,15.933,0,0,0-1.212,2.037,1.64,1.64,0,0,1-1.236.9,15.845,15.845,0,0,0-2.312.524,15.892,15.892,0,0,0,1.562,1.782,1.643,1.643,0,0,1,.473,1.454,15.87,15.87,0,0,0-.217,2.36,15.823,15.823,0,0,0,2.179-.935A1.638,1.638,0,0,1,446.412,22.573Zm0,0" transform="translate(-342.348 -8.978)" fill="#7351fa"/>
  <path id="Trazado_1046643" data-name="Trazado 1046643" d="M32.9,146.82H7.893A7.9,7.9,0,0,1,0,138.926v-4.661a7.9,7.9,0,0,1,7.894-7.893H32.9a10.225,10.225,0,1,1,0,20.449ZM7.893,129.656a4.614,4.614,0,0,0-4.609,4.608v4.661a4.614,4.614,0,0,0,4.609,4.609H32.9a6.94,6.94,0,1,0,0-13.879Zm0,0" transform="translate(0.001 -98.805)" fill="#7351fa"/>
  <path id="Trazado_1046644" data-name="Trazado 1046644" d="M219.044,152.5l-1.063-.559-1.063.559a3.618,3.618,0,0,1-5.249-3.814l.2-1.184-.86-.838a3.618,3.618,0,0,1,2.005-6.171l1.188-.173.532-1.078a3.618,3.618,0,0,1,6.489,0l.531,1.078,1.189.173a3.618,3.618,0,0,1,2.005,6.171l-.861.838.2,1.185a3.5,3.5,0,0,1-1.44,3.538A3.769,3.769,0,0,1,219.044,152.5Zm-1.063-4.057a1.645,1.645,0,0,1,.765.189,15.812,15.812,0,0,0,2.178.935,15.872,15.872,0,0,0-.216-2.36,1.642,1.642,0,0,1,.472-1.454,15.92,15.92,0,0,0,1.563-1.783,15.977,15.977,0,0,0-2.312-.524,1.645,1.645,0,0,1-1.237-.9l-.914-1.852a.311.311,0,0,0-.3-.186,15.945,15.945,0,0,0-1.212,2.038,1.644,1.644,0,0,1-1.236.9,15.951,15.951,0,0,0-2.312.524,15.828,15.828,0,0,0,1.562,1.783,1.643,1.643,0,0,1,.473,1.454,15.87,15.87,0,0,0-.217,2.36,15.928,15.928,0,0,0,2.179-.935A1.639,1.639,0,0,1,217.981,148.444Zm0,0" transform="translate(-163.944 -107.284)" fill="#7351fa"/>
  <path id="Trazado_1046645" data-name="Trazado 1046645" d="M300.718,152.5l-1.063-.559-1.063.559a3.618,3.618,0,0,1-5.249-3.814l.2-1.184-.86-.838a3.618,3.618,0,0,1,2-6.171l1.189-.173.532-1.078a3.618,3.618,0,0,1,6.489,0l.531,1.078,1.189.173a3.618,3.618,0,0,1,2,6.171l-.86.838.2,1.184a3.626,3.626,0,0,1-1.439,3.538A3.7,3.7,0,0,1,300.718,152.5Zm-1.063-4.057a1.639,1.639,0,0,1,.764.189,15.81,15.81,0,0,0,2.178.935,15.872,15.872,0,0,0-.216-2.36,1.645,1.645,0,0,1,.472-1.454,15.835,15.835,0,0,0,1.563-1.783,15.977,15.977,0,0,0-2.312-.524,1.642,1.642,0,0,1-1.236-.9,15.852,15.852,0,0,0-1.213-2.038,15.945,15.945,0,0,0-1.212,2.038,1.643,1.643,0,0,1-1.236.9,15.95,15.95,0,0,0-2.312.524,15.832,15.832,0,0,0,1.563,1.783,1.645,1.645,0,0,1,.472,1.454,15.872,15.872,0,0,0-.216,2.36,15.812,15.812,0,0,0,2.178-.935A1.645,1.645,0,0,1,299.655,148.444Zm0,0" transform="translate(-227.731 -107.284)" fill="#7351fa"/>
  <path id="Trazado_1046646" data-name="Trazado 1046646" d="M22.763,272.688H14.641a1.643,1.643,0,1,1,0-3.285h8.122a6.94,6.94,0,0,0,0-13.88H7.895a4.614,4.614,0,0,0-4.609,4.609v4.661A4.614,4.614,0,0,0,7.895,269.4a1.643,1.643,0,0,1,0,3.285A7.9,7.9,0,0,1,0,264.794v-4.661a7.9,7.9,0,0,1,7.894-7.894H22.763a10.225,10.225,0,0,1,0,20.45Zm0,0" transform="translate(0 -197.107)" fill="#7351fa"/>
  <path id="Trazado_1046647" data-name="Trazado 1046647" d="M172.75,278.372l-1.063-.559-1.063.559a3.618,3.618,0,0,1-5.249-3.815l.2-1.184-.861-.838a3.618,3.618,0,0,1,2.005-6.171l1.189-.173.532-1.077a3.618,3.618,0,0,1,6.489,0l.531,1.077,1.189.173a3.618,3.618,0,0,1,2,6.171l-.86.838.2,1.184a3.618,3.618,0,0,1-5.249,3.815Zm-1.063-4.057a1.64,1.64,0,0,1,.764.188,15.857,15.857,0,0,0,2.178.936,15.873,15.873,0,0,0-.216-2.361,1.642,1.642,0,0,1,.472-1.453,15.834,15.834,0,0,0,1.563-1.783,15.829,15.829,0,0,0-2.311-.524,1.643,1.643,0,0,1-1.237-.9,15.937,15.937,0,0,0-1.212-2.037,15.836,15.836,0,0,0-1.212,2.037,1.644,1.644,0,0,1-1.237.9,15.864,15.864,0,0,0-2.312.524,15.92,15.92,0,0,0,1.563,1.783,1.64,1.64,0,0,1,.472,1.453,15.871,15.871,0,0,0-.216,2.361,15.918,15.918,0,0,0,2.178-.936A1.654,1.654,0,0,1,171.687,274.315Zm0,0" transform="translate(-127.788 -205.589)" fill="#7351fa"/>
</svg>
