<svg xmlns="http://www.w3.org/2000/svg" width="75.501" height="97.987" viewBox="0 0 75.501 97.987">
  <g id="lista-de-verificacion" transform="translate(-18.2 -4.557)">
    <path id="Trazado_1046625" data-name="Trazado 1046625" d="M88.133,7.523H70.342V6A1.442,1.442,0,0,0,68.9,4.557H43A1.442,1.442,0,0,0,41.556,6V7.523H23.764A5.572,5.572,0,0,0,18.2,13.088V96.979a5.572,5.572,0,0,0,5.565,5.565H88.136A5.572,5.572,0,0,0,93.7,96.979V13.088a5.572,5.572,0,0,0-5.568-5.564Zm-6.341,11.9V90.64H30.1V19.428ZM44.44,7.442H67.457v9.1H44.44ZM90.813,96.979a2.684,2.684,0,0,1-2.68,2.68H23.762a2.684,2.684,0,0,1-2.68-2.68V13.088a2.683,2.683,0,0,1,2.68-2.68H41.556v6.135H28.663a1.442,1.442,0,0,0-1.442,1.442v74.1a1.442,1.442,0,0,0,1.442,1.442H83.235a1.442,1.442,0,0,0,1.442-1.442v-74.1a1.442,1.442,0,0,0-1.442-1.442H70.342V10.408H88.133a2.683,2.683,0,0,1,2.68,2.68Z" fill="#7351fa"/>
    <path id="Trazado_1046626" data-name="Trazado 1046626" d="M55.5,14.713H69a1.442,1.442,0,1,0,0-2.885H55.5a1.442,1.442,0,0,0,0,2.885Z" transform="translate(-6.304 -1.278)" fill="#7351fa"/>
    <path id="Trazado_1046627" data-name="Trazado 1046627" d="M64.4,100.73h8.756a1.442,1.442,0,1,0,0-2.885H64.4a1.442,1.442,0,0,0,0,2.885Z" transform="translate(-7.867 -16.399)" fill="#7351fa"/>
    <path id="Trazado_1046628" data-name="Trazado 1046628" d="M64.4,92.141H81.909a1.442,1.442,0,1,0,0-2.885H64.4a1.442,1.442,0,0,0,0,2.885Z" transform="translate(-7.867 -14.889)" fill="#7351fa"/>
    <path id="Trazado_1046629" data-name="Trazado 1046629" d="M44.518,98.8a1.442,1.442,0,0,0,2.04,0l7.078-7.079A1.442,1.442,0,0,0,51.6,89.679l-6.059,6.059L42.76,92.959A1.442,1.442,0,1,0,40.72,95Z" transform="translate(-3.885 -14.889)" fill="#7351fa"/>
    <path id="Trazado_1046630" data-name="Trazado 1046630" d="M64.4,41.728h8.756a1.442,1.442,0,1,0,0-2.885H64.4a1.442,1.442,0,0,0,0,2.885Z" transform="translate(-7.867 -6.027)" fill="#7351fa"/>
    <path id="Trazado_1046631" data-name="Trazado 1046631" d="M64.4,33.139H81.909a1.442,1.442,0,1,0,0-2.885H64.4a1.442,1.442,0,0,0,0,2.885Z" transform="translate(-7.867 -4.517)" fill="#7351fa"/>
    <path id="Trazado_1046632" data-name="Trazado 1046632" d="M44.518,39.8a1.442,1.442,0,0,0,2.04,0l7.078-7.079A1.442,1.442,0,0,0,51.6,30.677l-6.059,6.059L42.76,33.957A1.442,1.442,0,0,0,40.72,36Z" transform="translate(-3.885 -4.517)" fill="#7351fa"/>
    <path id="Trazado_1046633" data-name="Trazado 1046633" d="M64.4,61.395h8.756a1.442,1.442,0,1,0,0-2.885H64.4a1.442,1.442,0,1,0,0,2.885Z" transform="translate(-7.867 -9.484)" fill="#7351fa"/>
    <path id="Trazado_1046634" data-name="Trazado 1046634" d="M64.4,52.807H81.909a1.442,1.442,0,1,0,0-2.885H64.4a1.442,1.442,0,1,0,0,2.885Z" transform="translate(-7.867 -7.975)" fill="#7351fa"/>
    <path id="Trazado_1046635" data-name="Trazado 1046635" d="M44.518,59.465a1.442,1.442,0,0,0,2.04,0l7.078-7.078A1.442,1.442,0,0,0,51.6,50.348l-6.059,6.058L42.76,53.627a1.442,1.442,0,1,0-2.04,2.04Z" transform="translate(-3.885 -7.975)" fill="#7351fa"/>
    <path id="Trazado_1046636" data-name="Trazado 1046636" d="M64.4,81.063h8.756a1.442,1.442,0,1,0,0-2.885H64.4a1.442,1.442,0,0,0,0,2.885Z" transform="translate(-7.867 -12.942)" fill="#7351fa"/>
    <path id="Trazado_1046637" data-name="Trazado 1046637" d="M64.4,72.474H81.909a1.442,1.442,0,1,0,0-2.885H64.4a1.442,1.442,0,0,0,0,2.885Z" transform="translate(-7.867 -11.432)" fill="#7351fa"/>
    <path id="Trazado_1046638" data-name="Trazado 1046638" d="M44.518,79.13a1.442,1.442,0,0,0,2.04,0l7.078-7.079A1.442,1.442,0,0,0,51.6,70.01l-6.059,6.059L42.76,73.29a1.442,1.442,0,1,0-2.04,2.04Z" transform="translate(-3.885 -11.432)" fill="#7351fa"/>
  </g>
</svg>
