<svg xmlns="http://www.w3.org/2000/svg" width="139.676" height="140.638" viewBox="0 0 139.676 140.638">
  <g id="Grupo_1182573" data-name="Grupo 1182573" transform="translate(11668.766 12202.268)">
    <rect id="Rectángulo_421114" data-name="Rectángulo 421114" width="113.94" height="113.94" transform="translate(-11668.766 -12175.57)" fill="#ffd256"/>
    <path id="Trazado_1018835" data-name="Trazado 1018835" d="M845.215,482.818l-.091.091c-2.745,2.745-3.2,6.735-1.017,8.92s6.175,1.728,8.92-1.017c-2.745,2.745-3.2,6.739-1.013,8.924s6.175,1.728,8.92-1.017c-2.745,2.744-3.2,6.739-1.017,8.92s6.179,1.732,8.924-1.013l.091-.09,0-.022,7.584-31.284-30.383,7.364Z" transform="translate(-12406.565 -12676.534)" fill="#fff"/>
    <path id="Trazado_1018836" data-name="Trazado 1018836" d="M660.822,657.409l-3.844,3.844-.487-.487a2.72,2.72,0,0,0-3.831,0l-.97.97a2.719,2.719,0,0,0,0,3.827l25.85,25.85a2.715,2.715,0,0,0,3.826,0l.97-.969a2.716,2.716,0,0,0,0-3.831l-.483-.483,3.844-3.844.483.483a2.716,2.716,0,0,0,3.831,0l.969-.969a2.71,2.71,0,0,0,0-3.822l-25.85-25.85a2.714,2.714,0,0,0-3.822,0l-.969.969a2.721,2.721,0,0,0,0,3.831Z" transform="translate(-12301.118 -12773.344)" fill="#fff"/>
    <path id="Trazado_1018837" data-name="Trazado 1018837" d="M758.339,492.273,684.86,565.752l23.721,23.722,73.479-73.479c-2.745,2.745-6.739,3.2-8.924,1.013s-1.728-6.175,1.017-8.92c-2.745,2.745-6.739,3.2-8.92,1.017s-1.733-6.18,1.012-8.924c-2.745,2.744-6.735,3.2-8.92,1.017s-1.728-6.175,1.017-8.92Z" transform="translate(-12319.784 -12685.903)" fill="#ecb85e"/>
    <path id="Trazado_1018838" data-name="Trazado 1018838" d="M883.809,478.92s-.6,3.722,3.628,7.946c4.111,4.111,7.75,3.658,7.946,3.635l3.692-15.243.012-.041Z" transform="translate(-12429.134 -12676.527)" fill="#29275f"/>
    <path id="Trazado_1018839" data-name="Trazado 1018839" d="M641.423,684.634l-8.5,8.5s-6.145,8.007,5.2,19.352,19.356,5.206,19.356,5.206l8.5-8.5Z" transform="translate(-12290.321 -12791.647)" fill="#7351fa"/>
    <path id="Trazado_1018840" data-name="Trazado 1018840" d="M862.279,508.811a5.828,5.828,0,0,1-4.205-1.665,5.978,5.978,0,0,1-1.611-5.032,7.966,7.966,0,0,1,.362-1.626,6.408,6.408,0,0,1-6.653-1.244,5.992,5.992,0,0,1-1.617-5.035,8.02,8.02,0,0,1,.359-1.619,8,8,0,0,1-1.617.359,5.778,5.778,0,0,1-6.648-6.648,8.938,8.938,0,0,1,2.631-5.237l.1-.095a.961.961,0,0,1,.445-.248l31.307-7.588a.947.947,0,0,1,.9.252.958.958,0,0,1,.253.9L868.7,505.572a1.023,1.023,0,0,1-.257.471l-.091.091a8.932,8.932,0,0,1-5.241,2.627,7.236,7.236,0,0,1-.83.049m-1.836-10.584c-2.368,2.368-2.823,5.762-1.018,7.568a4.119,4.119,0,0,0,3.469,1.069,6.983,6.983,0,0,0,4.009-1.986l7.153-29.517-29.521,7.155c-2.281,2.358-2.7,5.686-.919,7.469a4.117,4.117,0,0,0,3.465,1.066,7.025,7.025,0,0,0,4.1-2.083.955.955,0,1,1,1.351,1.351,7.024,7.024,0,0,0-2.08,4.1,3.875,3.875,0,0,0,4.533,4.533,7.025,7.025,0,0,0,4.1-2.082.956.956,0,1,1,1.351,1.351" transform="translate(-12405.398 -12675.367)" fill="#29275f"/>
    <path id="Trazado_1018841" data-name="Trazado 1018841" d="M678.288,691.994a3.648,3.648,0,0,1-2.589-1.071l-25.85-25.851a3.674,3.674,0,0,1,0-5.177l.969-.97a3.67,3.67,0,0,1,4.987-.186l2.506-2.506a3.671,3.671,0,0,1,.186-4.987l.969-.969a3.663,3.663,0,0,1,5.173,0l25.85,25.851a3.665,3.665,0,0,1,0,5.173l-.969.97a3.644,3.644,0,0,1-2.592,1.072h0a3.63,3.63,0,0,1-2.387-.882l-2.507,2.507a3.67,3.67,0,0,1-.19,4.982l-.969.969a3.649,3.649,0,0,1-2.589,1.071m-24.874-32.232a1.753,1.753,0,0,0-1.244.515l-.969.969a1.763,1.763,0,0,0,0,2.475l25.85,25.851a1.752,1.752,0,0,0,2.475,0l.969-.969a1.756,1.756,0,0,0,0-2.48l-.483-.483a.956.956,0,0,1,0-1.351l3.843-3.843a.956.956,0,0,1,1.35,0l.483.481a1.734,1.734,0,0,0,1.237.51h0a1.742,1.742,0,0,0,1.242-.512l.969-.969a1.749,1.749,0,0,0,0-2.471l-25.85-25.851a1.751,1.751,0,0,0-2.471,0l-.969.969a1.756,1.756,0,0,0,0,2.48l.487.486a.955.955,0,0,1,0,1.351l-3.844,3.844a.955.955,0,0,1-1.352,0l-.487-.488a1.736,1.736,0,0,0-1.235-.51" transform="translate(-12299.951 -12772.174)" fill="#29275f"/>
    <path id="Trazado_1018842" data-name="Trazado 1018842" d="M707.415,589.263a.952.952,0,0,1-.675-.28l-23.722-23.722a.955.955,0,0,1,0-1.351L756.5,490.431a.956.956,0,0,1,1.3-.05l0,0a.956.956,0,0,1,.054,1.4c-2.367,2.367-2.823,5.762-1.017,7.569a4.117,4.117,0,0,0,3.465,1.066,7.027,7.027,0,0,0,4.1-2.083.956.956,0,0,1,1.351,1.351,7.02,7.02,0,0,0-2.08,4.1,4.122,4.122,0,0,0,1.069,3.469c1.8,1.8,5.2,1.35,7.569-1.018a.955.955,0,1,1,1.351,1.351c-2.368,2.368-2.823,5.762-1.018,7.568s5.2,1.355,7.573-1.011a.955.955,0,1,1,1.351,1.351L708.09,588.984a.954.954,0,0,1-.676.28m-22.371-24.677,22.371,22.371,68.823-68.823a5.761,5.761,0,0,1-6.556-6.649,7.967,7.967,0,0,1,.362-1.626,6.409,6.409,0,0,1-6.653-1.244,5.992,5.992,0,0,1-1.617-5.036,8.007,8.007,0,0,1,.359-1.618,8.005,8.005,0,0,1-1.616.359,5.772,5.772,0,0,1-6.658-6.549Z" transform="translate(-12318.617 -12684.737)" fill="#29275f"/>
    <path id="Trazado_1018843" data-name="Trazado 1018843" d="M893.729,490.314c-1.394,0-4.628-.437-8.132-3.94-4.518-4.516-3.923-8.6-3.9-8.772a.955.955,0,0,1,.718-.778l15.277-3.7a.947.947,0,0,1,.917.269.959.959,0,0,1,.225.929l-3.693,15.24a.953.953,0,0,1-.82.724,5.328,5.328,0,0,1-.6.031m-10.157-11.8c.051,1.126.52,3.657,3.375,6.512,2.823,2.822,5.352,3.315,6.514,3.374l3.16-13.049Z" transform="translate(-12427.969 -12675.359)" fill="#29275f"/>
    <path id="Trazado_1018844" data-name="Trazado 1018844" d="M650.488,719.093c-3.632,0-8.545-1.487-14.156-7.1-11.8-11.8-5.349-20.523-5.283-20.61l8.579-8.59a.955.955,0,0,1,1.351,0l24.557,24.557a.955.955,0,0,1,0,1.351l-8.5,8.5a11.393,11.393,0,0,1-6.553,1.893m-17.953-26.5c-.494.694-5.1,7.806,5.149,18.053s17.365,5.647,18.057,5.153l7.77-7.77L640.3,684.821Z" transform="translate(-12289.203 -12790.482)" fill="#29275f"/>
    <path id="Trazado_1018845" data-name="Trazado 1018845" d="M810.146,559.536a.956.956,0,0,1-.675-1.631l32.354-32.354a.955.955,0,0,1,1.351,1.351l-32.354,32.354a.95.95,0,0,1-.675.28" transform="translate(-12388.131 -12704.043)" fill="#29275f"/>
    <path id="Trazado_1018846" data-name="Trazado 1018846" d="M718.814,655.491a.956.956,0,0,1-.675-1.631l28.568-28.567a.955.955,0,0,1,1.351,1.351l-28.568,28.567a.951.951,0,0,1-.675.28" transform="translate(-12337.924 -12758.873)" fill="#29275f"/>
    <path id="Trazado_1018847" data-name="Trazado 1018847" d="M736.924,567.04a.956.956,0,0,1-.675-1.631l57.417-57.417a.955.955,0,0,1,1.351,1.351L737.6,566.76a.951.951,0,0,1-.675.28" transform="translate(-12347.879 -12694.39)" fill="#29275f"/>
    <path id="Trazado_1018848" data-name="Trazado 1018848" d="M697.126,689.973a.951.951,0,0,1-.675-.28L671.087,664.33a.955.955,0,0,1,1.351-1.351L697.8,688.342a.956.956,0,0,1-.675,1.631" transform="translate(-12312.059 -12779.59)" fill="#29275f"/>
    <path id="Trazado_1018849" data-name="Trazado 1018849" d="M687.514,697.433a.951.951,0,0,1-.675-.28L661.47,671.785a.955.955,0,0,1,1.351-1.351L688.189,695.8a.955.955,0,0,1-.675,1.631" transform="translate(-12306.772 -12783.688)" fill="#29275f"/>
    <path id="Trazado_1018850" data-name="Trazado 1018850" d="M661.171,729.126a.951.951,0,0,1-.675-.28L641.149,709.5a.956.956,0,0,1,1.351-1.351l19.346,19.346a.956.956,0,0,1-.675,1.631" transform="translate(-12295.602 -12804.42)" fill="#29275f"/>
  </g>
</svg>
