<svg xmlns="http://www.w3.org/2000/svg" width="111.117" height="111.744" viewBox="0 0 111.117 111.744">
  <g id="Grupo_1182574" data-name="Grupo 1182574" transform="translate(11624.862 12415.293)">
    <path id="Trazado_1018851" data-name="Trazado 1018851" d="M745.024,175.988a16.028,16.028,0,0,0-.08-1.616v-.009a33.016,33.016,0,0,0,5.217-2.542,21.48,21.48,0,0,0-3.2-7.716,33.77,33.77,0,0,0-5.49,1.889,16.619,16.619,0,0,0-2.3-2.3,33.094,33.094,0,0,0,1.889-5.482,21.25,21.25,0,0,0-7.715-3.187,33.738,33.738,0,0,0-2.542,5.208c-.539-.053-1.077-.08-1.624-.08s-1.087.027-1.624.08a33.738,33.738,0,0,0-2.543-5.208,21.263,21.263,0,0,0-7.715,3.187,33.09,33.09,0,0,0,1.889,5.482,16.6,16.6,0,0,0-2.3,2.3,33.248,33.248,0,0,0-5.49-1.889,21.487,21.487,0,0,0-3.2,7.716,33.443,33.443,0,0,0,5.217,2.542c-.053.53-.08,1.077-.08,1.624s.027,1.095.08,1.624a34.266,34.266,0,0,0-5.217,2.542,21.421,21.421,0,0,0,3.2,7.716,33.244,33.244,0,0,0,5.49-1.889,16.594,16.594,0,0,0,2.3,2.3,33.09,33.09,0,0,0-1.889,5.482,21.43,21.43,0,0,0,7.715,3.2,33.738,33.738,0,0,0,2.543-5.217c.538.053,1.077.08,1.624.08s1.085-.027,1.624-.08a33.821,33.821,0,0,0,2.542,5.217,21.417,21.417,0,0,0,7.715-3.2,33.1,33.1,0,0,0-1.889-5.482,16.617,16.617,0,0,0,2.3-2.3,33.814,33.814,0,0,0,5.49,1.889,21.413,21.413,0,0,0,3.2-7.716,33.817,33.817,0,0,0-5.217-2.542,16.2,16.2,0,0,0,.08-1.624m-23.385,0a7.548,7.548,0,1,1,7.548,7.548,7.55,7.55,0,0,1-7.548-7.548" transform="translate(-12332.622 -12500.511)" fill="#7ecfe7"/>
    <path id="Trazado_1018852" data-name="Trazado 1018852" d="M851.347,156.651a.92.92,0,0,1-.168-.015,28.474,28.474,0,0,1-9.276-3.38.955.955,0,0,1-.349-1.306L844.417,147a21.922,21.922,0,0,1-4.366-3.623l-4.368,3.664a.968.968,0,0,1-.7.219.953.953,0,0,1-.649-.34,28.515,28.515,0,0,1-4.921-8.55.956.956,0,0,1,.571-1.224l5.26-1.918a21.583,21.583,0,0,1-1.039-5.618h-5.573a.956.956,0,0,1-.956-.963,28.9,28.9,0,0,1,1.737-9.718.956.956,0,0,1,1.225-.57l5.124,1.867a21.688,21.688,0,0,1,2.837-5.02l-4.146-3.483a.955.955,0,0,1-.122-1.34,27.777,27.777,0,0,1,7.571-6.34.956.956,0,0,1,1.305.349l2.674,4.622a21.546,21.546,0,0,1,5.446-2l-.921-5.248a.955.955,0,0,1,.813-1.112c.247-.034.494-.073.74-.112a15.941,15.941,0,0,1,1.712-.21l2.395-.116,2.482.116a16.146,16.146,0,0,1,1.718.21c.246.039.492.078.738.112a.955.955,0,0,1,.812,1.112l-.921,5.248a21.547,21.547,0,0,1,5.447,2l2.673-4.622a.955.955,0,0,1,1.3-.349,27.8,27.8,0,0,1,7.572,6.34.955.955,0,0,1-.122,1.34l-4.147,3.483a21.625,21.625,0,0,1,2.837,5.019l5.124-1.867a.956.956,0,0,1,1.224.569,28.863,28.863,0,0,1,1.738,9.718.956.956,0,0,1-.956.963h-5.574a21.6,21.6,0,0,1-1.037,5.618l5.259,1.918a.956.956,0,0,1,.572,1.224,28.521,28.521,0,0,1-4.92,8.55.956.956,0,0,1-1.347.12l-4.37-3.664A21.955,21.955,0,0,1,867.808,147l2.863,4.953a.956.956,0,0,1-.35,1.306,28.478,28.478,0,0,1-9.277,3.38.954.954,0,0,1-1.109-.775l-1-5.672a21.851,21.851,0,0,1-5.655,0l-1,5.672a.954.954,0,0,1-.941.79m-7.652-4.587a26.543,26.543,0,0,0,6.879,2.506l.991-5.633a.953.953,0,0,1,.392-.617.964.964,0,0,1,.714-.158,19.875,19.875,0,0,0,6.883,0,.966.966,0,0,1,.714.158.954.954,0,0,1,.392.617l.989,5.633a26.534,26.534,0,0,0,6.88-2.506l-2.847-4.923a.955.955,0,0,1,.352-1.308,20.058,20.058,0,0,0,5.314-4.406.954.954,0,0,1,1.341-.113l4.334,3.633a26.528,26.528,0,0,0,3.648-6.34L875.44,136.7a.955.955,0,0,1-.567-1.234,19.718,19.718,0,0,0,1.262-6.818.956.956,0,0,1,.956-.949h5.523a26.939,26.939,0,0,0-1.286-7.211l-5.1,1.859a.955.955,0,0,1-1.229-.583,19.807,19.807,0,0,0-3.434-6.086.955.955,0,0,1,.123-1.339l4.116-3.456a25.854,25.854,0,0,0-5.618-4.692l-2.656,4.594a.956.956,0,0,1-1.31.346,19.662,19.662,0,0,0-6.588-2.415.955.955,0,0,1-.778-1.107l.914-5.208a12.49,12.49,0,0,0-1.313-.157l-2.387-.117-2.3.117a12.583,12.583,0,0,0-1.31.157l.915,5.208a.955.955,0,0,1-.778,1.107,19.678,19.678,0,0,0-6.587,2.415.956.956,0,0,1-1.31-.346l-2.657-4.594a25.829,25.829,0,0,0-5.617,4.692l4.116,3.456a.956.956,0,0,1,.123,1.339,19.809,19.809,0,0,0-3.434,6.086.956.956,0,0,1-1.229.583l-5.1-1.859a26.987,26.987,0,0,0-1.286,7.211h5.523a.956.956,0,0,1,.956.949,19.709,19.709,0,0,0,1.263,6.818.955.955,0,0,1-.567,1.234l-5.233,1.908a26.546,26.546,0,0,0,3.649,6.34l4.332-3.633a.954.954,0,0,1,1.341.113,20.052,20.052,0,0,0,5.316,4.406.955.955,0,0,1,.352,1.308Zm12.417-8.856a14.774,14.774,0,1,1,14.777-14.778,14.795,14.795,0,0,1-14.777,14.778m0-27.637a12.863,12.863,0,1,0,12.866,12.859,12.878,12.878,0,0,0-12.866-12.859" transform="translate(-12398.293 -12470.386)" fill="#29275f"/>
    <path id="Trazado_1018853" data-name="Trazado 1018853" d="M757.351,27.625h5.13a28.173,28.173,0,0,0-1.691-9.442l-4.8,1.748a22.362,22.362,0,0,0-3.91-6.774l3.922-3.289a27.4,27.4,0,0,0-7.349-6.153L746.1,8.131a22.421,22.421,0,0,0-7.349-2.668l.886-5.026c-.805-.115-1.587-.276-2.392-.322L734.843,0l-2.4.115c-.805.046-1.6.207-2.392.322l.886,5.026a22.42,22.42,0,0,0-7.349,2.668L721.03,3.715a27.223,27.223,0,0,0-7.349,6.153l3.922,3.289a22.364,22.364,0,0,0-3.91,6.774l-4.8-1.748a28.173,28.173,0,0,0-1.691,9.442h5.13a22.527,22.527,0,0,0,1.357,7.706l-4.8,1.748a27.725,27.725,0,0,0,4.784,8.3l3.922-3.289a22.66,22.66,0,0,0,5.981,5.026l-2.554,4.428a28.035,28.035,0,0,0,9.017,3.278l.886-5.037a22.337,22.337,0,0,0,7.82,0l.886,5.037a28.039,28.039,0,0,0,9.017-3.278l-2.565-4.428a22.5,22.5,0,0,0,5.992-5.026l3.922,3.289a27.725,27.725,0,0,0,4.784-8.3l-4.8-1.748a22.527,22.527,0,0,0,1.357-7.706M734.843,39.4a11.99,11.99,0,1,1,11.984-12,12,12,0,0,1-11.984,12" transform="translate(-12332.068 -12415.293)" fill="#7351fa"/>
  </g>
</svg>
