<svg xmlns="http://www.w3.org/2000/svg" width="105.472" height="71.532" viewBox="0 0 105.472 71.532">
  <g id="Grupo_1182575" data-name="Grupo 1182575" transform="translate(11929.892 12391.911)">
    <g id="Grupo_1182567" data-name="Grupo 1182567" transform="translate(-11928.7 -12390.721)">
      <path id="Trazado_1018857" data-name="Trazado 1018857" d="M135,70.121V92.729A16.12,16.12,0,0,1,118.932,108.8H101.011l5.13,14.4L83.412,108.8H47.986A16.12,16.12,0,0,1,31.914,92.729V70.121A16.119,16.119,0,0,1,47.986,54.049h70.946A16.119,16.119,0,0,1,135,70.121" transform="translate(-31.914 -54.049)" fill="#fff"/>
    </g>
    <path id="Trazado_1018858" data-name="Trazado 1018858" d="M105.209,123.459a1.2,1.2,0,0,1-.637-.185L82.134,109.061H47.054A17.283,17.283,0,0,1,29.791,91.8V69.189A17.282,17.282,0,0,1,47.054,51.927H118a17.282,17.282,0,0,1,17.263,17.262V91.8A17.283,17.283,0,0,1,118,109.061H101.767l4.563,12.807a1.191,1.191,0,0,1-1.122,1.591M47.054,54.308A14.9,14.9,0,0,0,32.172,69.189V91.8A14.9,14.9,0,0,0,47.054,106.68H82.48a1.2,1.2,0,0,1,.637.185l19.81,12.55-3.97-11.144a1.191,1.191,0,0,1,1.122-1.591H118A14.9,14.9,0,0,0,132.881,91.8V69.189A14.9,14.9,0,0,0,118,54.308Z" transform="translate(-11959.683 -12443.838)" fill="#29275f"/>
    <path id="Trazado_1018859" data-name="Trazado 1018859" d="M67.086,103.91a8.872,8.872,0,1,1,8.873-8.872,8.882,8.882,0,0,1-8.873,8.872m0-15.364a6.491,6.491,0,1,0,6.491,6.491,6.5,6.5,0,0,0-6.491-6.491" transform="translate(-11972.156 -12458.865)" fill="#29275f"/>
    <path id="Trazado_1018860" data-name="Trazado 1018860" d="M114.051,103.91a8.872,8.872,0,1,1,8.872-8.872,8.882,8.882,0,0,1-8.872,8.872m0-15.364a6.491,6.491,0,1,0,6.491,6.491,6.5,6.5,0,0,0-6.491-6.491" transform="translate(-11992.77 -12458.865)" fill="#29275f"/>
    <path id="Trazado_1018861" data-name="Trazado 1018861" d="M161.016,103.91a8.872,8.872,0,1,1,8.872-8.872,8.883,8.883,0,0,1-8.872,8.872m0-15.364a6.491,6.491,0,1,0,6.491,6.491,6.5,6.5,0,0,0-6.491-6.491" transform="translate(-12013.382 -12458.865)" fill="#29275f"/>
  </g>
</svg>
