<svg id="votacion" xmlns="http://www.w3.org/2000/svg" width="86.63" height="86.63" viewBox="0 0 86.63 86.63">
  <path id="Trazado_1046649" data-name="Trazado 1046649" d="M38.319,55.338a1.268,1.268,0,0,0,1.661-.679l9.31-22.184a1.269,1.269,0,0,0-2.34-.982L37.64,53.677A1.269,1.269,0,0,0,38.319,55.338ZM31.645,35.731c0,3.336,2.415,6.049,5.383,6.049s5.383-2.714,5.383-6.049S40,29.682,37.028,29.682,31.645,32.4,31.645,35.731Zm8.227,0c0,1.936-1.276,3.511-2.845,3.511s-2.845-1.575-2.845-3.511,1.276-3.511,2.845-3.511S39.873,33.795,39.873,35.731ZM3.956,25.017A42.952,42.952,0,0,0,.4,37.182,2.99,2.99,0,0,0,3.34,40.536H18.215a2.942,2.942,0,0,0,2.89-2.322A22.845,22.845,0,0,1,38.238,20.95a2.945,2.945,0,0,0,2.3-2.884V3.174A2.99,2.99,0,0,0,37.168.241a42.928,42.928,0,0,0-12.18,3.626A5.849,5.849,0,0,0,19.492,0H5.839A5.846,5.846,0,0,0,0,5.839V19.492a5.847,5.847,0,0,0,3.956,5.524Zm21.376-5.524V6.516A40.4,40.4,0,0,1,37.525,2.753a.406.406,0,0,1,.326.1A.423.423,0,0,1,38,3.174V18.066a.419.419,0,0,1-.328.41A25.394,25.394,0,0,0,18.626,37.667a.419.419,0,0,1-.411.331H3.339a.394.394,0,0,1-.421-.472,40.425,40.425,0,0,1,3.7-12.2H19.492a5.871,5.871,0,0,0,5.839-5.839ZM12.666,18.146a6.928,6.928,0,0,1,6.516,4.648H6.426a1.254,1.254,0,0,0-.245-.085,6.928,6.928,0,0,1,6.484-4.563Zm-4.25-6.788a4.25,4.25,0,1,1,4.25,4.25,4.254,4.254,0,0,1-4.25-4.25ZM2.538,5.839a3.3,3.3,0,0,1,3.3-3.3H19.492a3.3,3.3,0,0,1,3.3,3.3V19.492A3.294,3.294,0,0,1,21.6,22.028a9.5,9.5,0,0,0-4.677-5.391,6.788,6.788,0,1,0-8.52,0,9.5,9.5,0,0,0-4.677,5.391,3.3,3.3,0,0,1-1.191-2.536V5.839Zm35.7,59.84a22.813,22.813,0,0,1-17.372-18.52,1.269,1.269,0,0,0-1.253-1.066H1.443A1.269,1.269,0,0,0,.18,47.477,43.118,43.118,0,0,0,2.743,58.709a1.269,1.269,0,1,0,2.376-.891,40.561,40.561,0,0,1-2.263-9.187h15.7A25.358,25.358,0,0,0,37.67,68.153a.419.419,0,0,1,.328.41V83.455a.392.392,0,0,1-.474.421,40.416,40.416,0,0,1-12.193-3.762V67.137A5.846,5.846,0,0,0,19.492,61.3H5.839A5.846,5.846,0,0,0,0,67.137V80.79A5.848,5.848,0,0,0,4.221,86.4a5.308,5.308,0,0,0,1.618.23H19.492a5.585,5.585,0,0,0,1.618-.23,5.866,5.866,0,0,0,3.877-3.636,42.947,42.947,0,0,0,12.18,3.625,2.959,2.959,0,0,0,3.369-2.933V68.563a2.945,2.945,0,0,0-2.3-2.884ZM6.149,84.091a6.892,6.892,0,0,1,13.034,0ZM8.416,72.656a4.25,4.25,0,1,1,4.25,4.25,4.254,4.254,0,0,1-4.25-4.25ZM22.794,80.79A3.3,3.3,0,0,1,21.6,83.326a9.5,9.5,0,0,0-4.677-5.391,6.788,6.788,0,1,0-8.52,0,9.5,9.5,0,0,0-4.677,5.391A3.3,3.3,0,0,1,2.538,80.79V67.137a3.305,3.305,0,0,1,3.3-3.3H19.492a3.3,3.3,0,0,1,3.3,3.3V80.79ZM82.674,61.611a42.919,42.919,0,0,0,3.551-12.164,2.959,2.959,0,0,0-2.936-3.355H68.411a2.942,2.942,0,0,0-2.888,2.316A22.967,22.967,0,0,1,48.381,65.668a2.947,2.947,0,0,0-2.289,2.882V83.456a2.959,2.959,0,0,0,3.368,2.933,42.95,42.95,0,0,0,12.181-3.625,5.88,5.88,0,0,0,5.495,3.866H80.79a5.872,5.872,0,0,0,5.839-5.839V67.137a5.849,5.849,0,0,0-3.955-5.526ZM61.3,67.137V80.114A40.417,40.417,0,0,1,49.1,83.876a.4.4,0,0,1-.326-.1.424.424,0,0,1-.148-.323V68.55a.42.42,0,0,1,.327-.41A25.518,25.518,0,0,0,68,48.961a.419.419,0,0,1,.411-.33H83.29a.424.424,0,0,1,.322.147.407.407,0,0,1,.1.325,40.386,40.386,0,0,1-3.7,12.2H67.137A5.846,5.846,0,0,0,61.3,67.137Zm6.15,16.954a6.891,6.891,0,0,1,13.031,0Zm2.266-11.436a4.25,4.25,0,1,1,4.25,4.25A4.255,4.255,0,0,1,69.714,72.656ZM84.091,80.79A3.3,3.3,0,0,1,82.9,83.326a9.5,9.5,0,0,0-4.677-5.391,6.788,6.788,0,1,0-8.52,0,9.5,9.5,0,0,0-4.677,5.391,3.3,3.3,0,0,1-1.191-2.536V67.137a3.305,3.305,0,0,1,3.3-3.3H80.7a1.27,1.27,0,0,0,.148,0,3.3,3.3,0,0,1,3.244,3.3V80.79ZM80.79,0H67.137a5.848,5.848,0,0,0-5.5,3.865A42.949,42.949,0,0,0,49.461.241a2.986,2.986,0,0,0-3.368,2.933v14.9a2.947,2.947,0,0,0,2.289,2.883A22.967,22.967,0,0,1,65.522,38.22a2.942,2.942,0,0,0,2.888,2.316H83.29a3,3,0,0,0,2.936-3.355,43.139,43.139,0,0,0-2.134-8.7,1.269,1.269,0,1,0-2.389.858,40.6,40.6,0,0,1,2.008,8.191A.392.392,0,0,1,83.29,38H68.411a.419.419,0,0,1-.411-.33A25.518,25.518,0,0,0,48.956,18.49a.42.42,0,0,1-.327-.41V3.174a.4.4,0,0,1,.473-.421A40.416,40.416,0,0,1,61.3,6.515V19.492a5.848,5.848,0,0,0,4.267,5.622l.017,0a5.82,5.82,0,0,0,1.555.212H80.79a5.819,5.819,0,0,0,1.555-.212l.017,0a5.849,5.849,0,0,0,4.267-5.622V5.839A5.846,5.846,0,0,0,80.79,0ZM67.448,22.794a6.891,6.891,0,0,1,13.031,0Zm2.266-11.436a4.25,4.25,0,1,1,4.25,4.25A4.255,4.255,0,0,1,69.714,11.358Zm14.378,8.135A3.294,3.294,0,0,1,82.9,22.028a9.5,9.5,0,0,0-4.677-5.391,6.788,6.788,0,1,0-8.52,0,9.5,9.5,0,0,0-4.677,5.391,3.3,3.3,0,0,1-1.191-2.536V5.839a3.305,3.305,0,0,1,3.3-3.3H80.79a3.3,3.3,0,0,1,3.3,3.3ZM54.984,50.9c0-3.336-2.415-6.049-5.383-6.049s-5.383,2.714-5.383,6.049,2.415,6.049,5.383,6.049S54.984,54.234,54.984,50.9Zm-8.227,0c0-1.936,1.276-3.511,2.845-3.511s2.845,1.575,2.845,3.511S51.17,54.41,49.6,54.41,46.757,52.835,46.757,50.9Z" transform="translate(0 0)" fill="#7351fa"/>
</svg>
