<svg xmlns="http://www.w3.org/2000/svg" width="97" height="90.986" viewBox="0 0 97 90.986">
  <path id="recurso" d="M131.424,125.528l-6.827-.047c-.071,0-.188.141-.188.235l.024,19.257c0,.071.118.141.212.141l6.827.047c.071,0,.188-.141.188-.235l-.024-19.233c.024-.094-.094-.165-.212-.165Zm-6.8-2.848,6.827.047a2.994,2.994,0,0,1,3.013,2.966c0,6.4.047,12.83.024,19.233a3.06,3.06,0,0,1-3.013,3.06c-2.283,0-4.567-.047-6.85-.047a3.023,3.023,0,0,1-2.66-1.577c-6.662-.094-27.072.024-30.109-.306a.836.836,0,0,1-.235-.047c-5.273-1.53-20.01-12.524-27.425-17.632-2.283-1.577-3.225-3.814-1.789-5.673,1.483-1.93,4.708-2.189,7.392-1.271a3.689,3.689,0,0,1,2.825-2.707,8.4,8.4,0,0,1,6.544,1.318l.047.024,10.052,7.109a29.432,29.432,0,0,0,2.825,1.13c1.271.471,2.8,1.012,4.261,1.46,1.577-.094,3.154-.235,4.638-.377,2.59-.235,4.755-.306,6.026-.377-.306-.165-.659-.353-1.083-.612-1.624-1.059-3.884-2.354-6.356-3.7-2.825-1.342-4.261-3.343-4.5-5.2a4.127,4.127,0,0,1,2.283-4.284c1.883-1.012,4.944-1.059,8.828.871a.515.515,0,0,1,.118.071c5.462,3.437,10.287,5.038,15.49,8.592a2.968,2.968,0,0,1,2.825-2.072Zm-2.99,20.857c-.024-5.132-.047-10.264-.024-15.419a55.7,55.7,0,0,0-9.228-5.391,80.264,80.264,0,0,1-7.533-4.12c-2.919-1.436-5.038-1.507-6.215-.895a1.346,1.346,0,0,0-.8,1.46c.118.989,1.059,2.119,2.919,3.013l.141.071c2.542,1.389,4.849,2.707,6.544,3.814,2.189,1.412,3.908,2.919,3.154,4.261a1.374,1.374,0,0,1-1.53.683,49.2,49.2,0,0,1-7.863,1.2c-4.073.377-15.278,1.295-17.585-.024l-13.983-7.816c-2.542-1.318-5.108-.471-5.061.235.024.353.377.824,1.224,1.412,1.342.918,2.778,1.93,4.449,3.107,7.109,5.038,18.127,12.853,22.058,14.1,1.342.283,23.729.235,29.332.306ZM73.208,123.174l11.77,6.568a16.093,16.093,0,0,0,3.861.33,8.654,8.654,0,0,1-1.224-.589l-9.981-7.062c-2.66-1.718-5.014-.989-5.085-.4C72.525,122.256,72.713,122.656,73.208,123.174Zm49.436-32.439a10.311,10.311,0,1,1-10.287,10.311,10.308,10.308,0,0,1,10.287-10.311Zm5.273,5.014a7.474,7.474,0,1,0,0,10.57A7.474,7.474,0,0,0,127.917,95.748Zm-7.933-13.513h5.32a1.417,1.417,0,0,1,1.412,1.412v2.331a15.9,15.9,0,0,1,3.7,1.53l1.648-1.671a1.435,1.435,0,0,1,2,0l3.767,3.767a1.435,1.435,0,0,1,0,2l-1.648,1.648a15.9,15.9,0,0,1,1.53,3.7h2.331a1.417,1.417,0,0,1,1.412,1.412v5.32a1.417,1.417,0,0,1-1.412,1.412H137.71a15.9,15.9,0,0,1-1.53,3.7l1.648,1.648a1.435,1.435,0,0,1,0,2l-3.767,3.767a1.393,1.393,0,0,1-2,0l-1.648-1.648a15.9,15.9,0,0,1-3.7,1.53v2.331a1.417,1.417,0,0,1-1.412,1.412h-5.32a1.417,1.417,0,0,1-1.412-1.412v-2.331a16.335,16.335,0,0,1-3.7-1.53l-1.648,1.648a1.393,1.393,0,0,1-2,0l-3.767-3.767a1.393,1.393,0,0,1,0-2l1.648-1.648a15.849,15.849,0,0,1-.895-1.789,12.94,12.94,0,0,1-.636-1.907h-2.331a1.417,1.417,0,0,1-1.412-1.412v-5.32a1.417,1.417,0,0,1,1.412-1.412h2.331a14.158,14.158,0,0,1,1.248-3.178,19.74,19.74,0,0,1-20.41.094c.071.424.165.847.235,1.271A3.945,3.945,0,0,1,92.558,96.2a4.193,4.193,0,0,1,1.2,2.378,4.193,4.193,0,0,1,2.378,1.2,3.774,3.774,0,0,1,.071,5.509l-1.224,1.224c.8,1.577,1.789,3.249,1.86,4.92a3.5,3.5,0,0,1-.965,2.707l-3.531,3.531c-1.507,1.507-3.814,1.059-5.7.094l-1.93-.965-1.224,1.224a3.774,3.774,0,0,1-5.509-.071,4.193,4.193,0,0,1-1.2-2.378,4.115,4.115,0,0,1-3.437-5.132c-5.108-.871-10.5-1.93-14.384-5.791A16.892,16.892,0,0,1,78.787,77.763a19.822,19.822,0,1,1,36.7,9.416,11.526,11.526,0,0,1,1.224-.565,12.94,12.94,0,0,1,1.907-.636V83.648a1.348,1.348,0,0,1,1.365-1.412Zm-12.665,9.181a1.43,1.43,0,0,1,.165-1.813l3.767-3.767a1.428,1.428,0,0,1,1.836-.141,17.008,17.008,0,1,0-31.427-7.109c.047.424.094.847.165,1.248.33.282.683.612,1.012.918a19.217,19.217,0,0,1,4.732,9.016,17.134,17.134,0,0,0,4.944,2.919A16.848,16.848,0,0,0,107.318,91.417Zm16.573-6.356h-2.5v2.048a1.411,1.411,0,0,1-1.154,1.389,13.684,13.684,0,0,0-2.472.73,12.428,12.428,0,0,0-2.213,1.177,1.4,1.4,0,0,1-1.86-.118l-1.46-1.46-1.766,1.766,1.46,1.46a1.393,1.393,0,0,1,.165,1.789,12.642,12.642,0,0,0-1.954,4.685,1.424,1.424,0,0,1-1.412,1.248h-2.048v2.5h2.048a1.429,1.429,0,0,1,1.389,1.154,14.528,14.528,0,0,0,.73,2.5,11.17,11.17,0,0,0,1.2,2.213,1.43,1.43,0,0,1-.118,1.86l-1.46,1.46,1.766,1.766,1.46-1.46a1.393,1.393,0,0,1,1.789-.165,12.807,12.807,0,0,0,4.685,1.954,1.424,1.424,0,0,1,1.248,1.412v2.048h2.5v-2.048a1.411,1.411,0,0,1,1.154-1.389,12.7,12.7,0,0,0,4.708-1.93,1.4,1.4,0,0,1,1.86.118l1.46,1.46,1.766-1.766-1.46-1.46a1.393,1.393,0,0,1-.165-1.789,12.642,12.642,0,0,0,1.954-4.685,1.407,1.407,0,0,1,1.412-1.248h2.048v-2.5H136.6a1.411,1.411,0,0,1-1.389-1.154,12.7,12.7,0,0,0-1.93-4.708,1.4,1.4,0,0,1,.118-1.86l1.46-1.46L133.1,88.827l-1.46,1.46a1.393,1.393,0,0,1-1.789.165,12.642,12.642,0,0,0-4.685-1.954,1.407,1.407,0,0,1-1.248-1.412V85.061ZM90.628,99.75a1,1,0,0,0-.071-1.53,1.021,1.021,0,0,0-1.53-.071L76.291,110.885c-.989.989.612,2.566,1.577,1.577Zm-15.349,8.192,2.4-2.425-8.263-8.263a1.862,1.862,0,1,0,0,2.637,1.435,1.435,0,0,1,2,0,1.393,1.393,0,0,1,0,2,4.69,4.69,0,1,1,0-6.639l8.263,8.263,1.436-1.436-8.286-8.263a4.694,4.694,0,1,1,6.639,0,1.415,1.415,0,0,1-2-2,1.877,1.877,0,0,0-1.318-3.2,1.849,1.849,0,0,0-1.86,1.86,1.892,1.892,0,0,0,.541,1.318l8.263,8.263,3.013-3.013c-.871-5.061-1.742-10.735-5.3-14.289a14.066,14.066,0,1,0-19.892,19.892c3.6,3.625,9.275,4.426,14.36,5.3Zm17.609.706-6.1,6.1c.753.377,2.919,1.6,3.531.989l3.531-3.531C94.465,111.568,93.264,109.4,92.888,108.649Zm-.259-6.921L79.893,114.464a.965.965,0,0,0,.071,1.507,1.021,1.021,0,0,0,1.53.071L94.23,103.305a.99.99,0,0,0-.071-1.53,1.04,1.04,0,0,0-1.53-.047Zm-46.47-19.7a1.42,1.42,0,0,1-.683-1.883,1.394,1.394,0,0,1,1.86-.683l5.3,2.448a1.42,1.42,0,0,1,.683,1.883,1.394,1.394,0,0,1-1.86.683Zm14.6-14.878a1.433,1.433,0,0,1,.847-1.813,1.414,1.414,0,0,1,1.813.847l2,5.485a1.415,1.415,0,0,1-2.66.965Zm.471,50.307a1.42,1.42,0,0,1-1.883.683,1.394,1.394,0,0,1-.683-1.86l2.448-5.3a1.416,1.416,0,1,1,2.566,1.2Zm-14.878-14.6a1.415,1.415,0,1,1-.965-2.66l5.485-2a1.415,1.415,0,1,1,.965,2.66ZM97.125,67.382V65.875a1.412,1.412,0,1,1,2.825,0v1.507a5.525,5.525,0,0,1,4.12,5.344,1.412,1.412,0,1,1-2.825,0,2.705,2.705,0,0,0-4.614-1.907,2.667,2.667,0,0,0-.8,1.907c0,2.025,1.507,2.378,3.013,2.731,2.613.612,5.2,1.224,5.2,5.485a5.525,5.525,0,0,1-4.12,5.344v1.507a1.412,1.412,0,0,1-2.825,0V86.285a5.525,5.525,0,0,1-4.12-5.344,1.412,1.412,0,0,1,2.825,0,2.705,2.705,0,0,0,4.614,1.907,2.647,2.647,0,0,0,.777-1.907c0-2.025-1.507-2.378-3.013-2.731-2.613-.612-5.2-1.248-5.2-5.485A5.649,5.649,0,0,1,97.125,67.382Z" transform="translate(-44.453 -57)" fill="#7351fa"/>
</svg>
