<svg xmlns="http://www.w3.org/2000/svg" width="62.334" height="62.341" viewBox="0 0 62.334 62.341">
  <path id="publico-objetivo" d="M14.254,12.059l-2.915-2.93a1.565,1.565,0,1,0-2.213,2.213l2.93,2.93a31.173,31.173,0,0,0,0,41.818L9.126,59a1.565,1.565,0,0,0,2.213,2.213l2.915-2.93a31.173,31.173,0,0,0,41.818,0L59,61.218A1.565,1.565,0,0,0,61.215,59l-2.93-2.915a31.173,31.173,0,0,0,0-41.818l2.93-2.93A1.565,1.565,0,1,0,59,9.128l-2.915,2.93a31.173,31.173,0,0,0-41.834,0Zm39.62,2.213a28.055,28.055,0,0,0-37.407,0L19.912,17.7A1.565,1.565,0,1,1,17.7,19.914L14.269,16.47a28.055,28.055,0,0,0,0,37.407L17.7,50.432a1.565,1.565,0,1,1,2.213,2.213l-3.445,3.429a28.055,28.055,0,0,0,37.407,0L50.43,52.63a1.56,1.56,0,0,1,2.2-2.213l3.445,3.46a28.055,28.055,0,0,0,0-37.407l-3.445,3.445a1.56,1.56,0,1,1-2.213-2.2ZM23.45,41.189a6.235,6.235,0,0,0-3.865-1.34H16.467a6.235,6.235,0,0,0-4.676,2.12,1.557,1.557,0,1,0,2.338,2.057,3.117,3.117,0,0,1,2.338-1.06h3.117A3.117,3.117,0,0,1,22.7,46.083v10.91a1.559,1.559,0,0,0,3.117,0V44.525a4.676,4.676,0,0,1,4.676-4.676h9.352a4.676,4.676,0,0,1,4.676,4.676V56.994a1.559,1.559,0,0,0,3.117,0V46.083a3.117,3.117,0,0,1,3.117-3.117h3.117a3.117,3.117,0,0,1,2.276.982,1.559,1.559,0,0,0,2.276-2.12,6.235,6.235,0,0,0-4.551-1.979H50.757a6.235,6.235,0,0,0-3.865,1.34,8.1,8.1,0,0,0-1.559-2.182,7.793,7.793,0,0,0-5.486-2.276H30.495a7.794,7.794,0,0,0-7.046,4.459ZM52.315,25.821a6.235,6.235,0,1,0,6.235,6.235A6.235,6.235,0,0,0,52.315,25.821Zm-34.29,0a6.235,6.235,0,1,0,6.235,6.235A6.235,6.235,0,0,0,18.026,25.821Zm34.29,3.117A3.117,3.117,0,1,1,49.2,32.056,3.117,3.117,0,0,1,52.315,28.939Zm-34.29,0a3.117,3.117,0,1,1-3.117,3.117A3.117,3.117,0,0,1,18.026,28.939ZM35.171,14.911a9.352,9.352,0,1,0,9.352,9.352A9.352,9.352,0,0,0,35.171,14.911Zm0,3.117a6.235,6.235,0,1,1-6.235,6.235A6.235,6.235,0,0,1,35.171,18.028Z" transform="translate(-4.004 -3.999)" fill="#ffd256" fill-rule="evenodd"/>
</svg>
