<svg xmlns="http://www.w3.org/2000/svg" width="95" height="91.495" viewBox="0 0 95 91.495"><path d="M48.855,100.274l-.9-.767,2.752-2.75a1.345,1.345,0,1,0-1.9-1.9L46.054,97.6a23.256,23.256,0,0,1-3.081-4.37,22.6,22.6,0,0,1-1.656-3.8,23.262,23.262,0,0,1-1.194-6.094v-.054h3.9a1.347,1.347,0,0,0,0-2.693h-3.9a23.356,23.356,0,0,1,5.943-14.313l2.74,2.745a1.345,1.345,0,1,0,1.9-1.9l-2.74-2.744a23.424,23.424,0,0,1,14.31-5.939v3.892a1.346,1.346,0,1,0,2.691,0V58.44a24.459,24.459,0,0,1,4.165.616A23.51,23.51,0,0,1,79.29,64.374l-2.753,2.747a1.348,1.348,0,0,0,.95,2.3,1.329,1.329,0,0,0,.95-.393l2.752-2.751.536.624.536.67-33,33.014ZM33.29,81.94a30.089,30.089,0,0,0,11.132,23.474l2.911-2.912a26.228,26.228,0,0,1-2.387-38.97l.268-.263a26.212,26.212,0,0,1,38.973,2.381L87.1,62.739A30.33,30.33,0,0,0,33.29,81.94ZM61.947,44.49H65.3v4.473a32.558,32.558,0,0,0-3.349,0Zm-4.518-7.541H69.815V41.8H57.429Zm49.946,7.411a1.343,1.343,0,0,0-1.9,0L89.009,60.828A32.987,32.987,0,0,0,67.988,49.2V44.49h2a2.525,2.525,0,0,0,2.521-2.521V36.777a2.524,2.524,0,0,0-2.521-2.52H57.259a2.524,2.524,0,0,0-2.521,2.52v5.192a2.524,2.524,0,0,0,2.521,2.521h2v4.718A33.016,33.016,0,0,0,42.51,107.325L26.385,123.454a1.345,1.345,0,1,0,1.9,1.9l79.09-79.094a1.349,1.349,0,0,0,0-1.9Zm-55.9,37.335a1.347,1.347,0,0,0,1.315,1.374l10.8.219a1.353,1.353,0,0,0,1.279-1.865l-7.161-17.21a1.351,1.351,0,0,0-2.5,1.034l6.37,15.305-8.732-.177A1.339,1.339,0,0,0,51.474,81.694Zm65.292,38.37a1.542,1.542,0,0,0,1.535-1.538V96.336l-11.2,7a9.98,9.98,0,0,1-5.5,1.577H97.23v2.1a1.346,1.346,0,1,1-2.692,0v-2.1H90.166a9.941,9.941,0,0,1-5.493-1.577l-11.217-7v22.19A1.545,1.545,0,0,0,75,120.064h41.762ZM84.649,91.051H73.457v2.112l12.642,7.89a7.255,7.255,0,0,0,4.068,1.168h4.372v-2.136a1.346,1.346,0,1,1,2.692,0v2.136h4.36a7.322,7.322,0,0,0,4.08-1.168l12.63-7.89V91.051H107.119l-.244.111-.049-.111H84.941l-.061.111ZM88.4,83.783a2.793,2.793,0,0,1,2.606-1.644h9.755a2.793,2.793,0,0,1,2.606,1.644l2.18,4.576H86.22Zm31.251,4.576H108.52l-2.728-5.735a5.459,5.459,0,0,0-5.03-3.177H91.007a5.476,5.476,0,0,0-5.042,3.177l-2.728,5.735H72.117A1.351,1.351,0,0,0,70.765,89.7v28.822A4.239,4.239,0,0,0,75,122.757h41.762a4.236,4.236,0,0,0,4.226-4.231V89.7a1.34,1.34,0,0,0-1.339-1.346Z" transform="translate(-25.991 -34.257)" fill="#7351fa" fill-rule="evenodd"/></svg>