<svg xmlns="http://www.w3.org/2000/svg" width="107.367" height="107.373" viewBox="0 0 107.367 107.373"><g transform="translate(-0.015)"><path d="M162,171.277l-4.1,4.1-.524-.524a1.787,1.787,0,0,0-2.527,2.527l1.787,1.787a1.787,1.787,0,0,0,2.527,0l5.362-5.362A1.787,1.787,0,0,0,162,171.277Z" transform="translate(-122.014 -135.009)" fill="#7351fa"/><path d="M242.174,187.737H224.3a1.787,1.787,0,1,0,0,3.574h17.872a1.787,1.787,0,1,0,0-3.574Z" transform="translate(-175.901 -148.418)" fill="#7351fa"/><path d="M162,222.477l-4.1,4.1-.524-.524a1.787,1.787,0,0,0-2.527,2.527l1.787,1.787a1.787,1.787,0,0,0,2.527,0L164.53,225A1.787,1.787,0,0,0,162,222.477Z" transform="translate(-122.014 -175.486)" fill="#7351fa"/><path d="M242.174,238.937H224.3a1.787,1.787,0,1,0,0,3.574h17.872a1.787,1.787,0,1,0,0-3.574Z" transform="translate(-175.901 -188.895)" fill="#7351fa"/><path d="M162,273.676l-4.1,4.1-.524-.524a1.787,1.787,0,0,0-2.527,2.527l1.787,1.787a1.787,1.787,0,0,0,2.527,0l5.362-5.362A1.787,1.787,0,0,0,162,273.676Z" transform="translate(-122.014 -215.962)" fill="#7351fa"/><path d="M242.174,290.137H224.3a1.787,1.787,0,1,0,0,3.574h17.872a1.787,1.787,0,0,0,0-3.574Z" transform="translate(-175.901 -229.372)" fill="#7351fa"/><path d="M162,324.876l-4.1,4.1-.524-.524a1.787,1.787,0,0,0-2.527,2.527l1.787,1.787a1.787,1.787,0,0,0,2.527,0l5.362-5.362A1.787,1.787,0,0,0,162,324.876Z" transform="translate(-122.014 -256.439)" fill="#7351fa"/><path d="M242.174,341.337H224.3a1.787,1.787,0,1,0,0,3.574h17.872a1.787,1.787,0,1,0,0-3.574Z" transform="translate(-175.901 -269.849)" fill="#7351fa"/><path d="M104.327.524l-2.55,2.55L99.811,1.109a3.765,3.765,0,0,0-5.792.574l-5.667,8.493a3.774,3.774,0,0,0,.468,4.749l.554.554-5.108,5.115A50.107,50.107,0,1,0,86.8,23.121L91.9,18.006l.552.552a3.771,3.771,0,0,0,4.747.466l8.5-5.665a3.763,3.763,0,0,0,.572-5.79L104.308,5.6l2.55-2.55A1.789,1.789,0,1,0,104.327.524ZM96.655,57.19A46.537,46.537,0,1,1,81.743,23.12l-2.293,2.3L76.337,22.3a3.793,3.793,0,0,0-3.88-.942,3.627,3.627,0,0,0-1.1.609A41.139,41.139,0,1,0,85.408,36.021a3.667,3.667,0,0,0,.609-1.1,3.789,3.789,0,0,0-.942-3.88l-3.1-3.1L84.27,25.65A46.289,46.289,0,0,1,96.655,57.19ZM69.478,37.9a3.855,3.855,0,0,0,2.715,1.129h.032a28.695,28.695,0,1,1-3.85-3.853A3.826,3.826,0,0,0,69.478,37.9Zm-.547-6.836a32.212,32.212,0,1,0,7.383,7.383l5.851-.894A37.559,37.559,0,1,1,69.817,25.207Zm13.582,2.829-10.3,1.56a.27.27,0,0,1-.211-.08.248.248,0,0,1-.08-.211l1.648-10.4a.217.217,0,0,1,.064-.011.25.25,0,0,1,.179.084l4.341,4.339c.013.014.016.034.03.048s.032.018.046.03l4.321,4.321c.027.029.113.113-.034.324h0Zm21.207-23.5-8.494,5.664a.191.191,0,0,1-.239-.023L91.349,12.4a.179.179,0,0,1-.023-.239l5.665-8.5.289-.029,6.468,6.468Z" transform="translate(0 0)" fill="#7351fa"/></g></svg>