<svg xmlns="http://www.w3.org/2000/svg" xmlns:xlink="http://www.w3.org/1999/xlink" width="321" height="616.773" viewBox="0 0 321 616.773">
  <defs>
    <clipPath id="clip-path">
      <path id="Trazado_1013745" data-name="Trazado 1013745" d="M4.62,0H316.38C318.931,0,321,10.348,321,23.114V593.66c0,12.765-2.069,23.114-4.62,23.114H4.62C2.069,616.773,0,606.425,0,593.66V23.114C0,10.348,2.069,0,4.62,0Z" transform="translate(-70.647 5432.928)" fill="none"/>
    </clipPath>
  </defs>
  <g id="Grupo_1182744" data-name="Grupo 1182744" transform="translate(7359 8689.845)">
    <g id="Enmascarar_grupo_1115220" data-name="Enmascarar grupo 1115220" transform="translate(-7288.353 -14122.772)" opacity="0.12" clip-path="url(#clip-path)">
      <path id="Trazado_1013732" data-name="Trazado 1013732" d="M357.439,0C554.848,0,714.879,169.6,714.879,378.81s-160.031,378.81-357.439,378.81S0,588.021,0,378.81,160.031,0,357.439,0Z" transform="translate(17.262 4766.659)" fill="#9ae1b4" opacity="0.11"/>
      <path id="Trazado_1013733" data-name="Trazado 1013733" d="M6.426,0h433.6c3.549,0,6.426,11.692,6.426,26.116V670.757c0,14.423-2.877,26.116-6.426,26.116H6.426C2.877,696.873,0,685.181,0,670.757V26.116C0,11.692,2.877,0,6.426,0Z" transform="translate(-83.147 5377.744)" fill="#f9f8ff"/>
      <g id="Grupo_1162584" data-name="Grupo 1162584" transform="translate(177.853 5635.653)" opacity="0.2">
        <path id="Trazado_1013734" data-name="Trazado 1013734" d="M378.7,61.646c-17.266,0-25.789-14.84-32.635-26.769-6.936-12.07-11.633-19.468-20.473-19.468s-13.53,7.4-20.449,19.468c-6.846,11.93-15.369,26.769-32.627,26.769s-25.789-14.84-32.635-26.769c-6.928-12.07-11.625-19.468-20.457-19.468s-13.521,7.4-20.449,19.468c-6.846,11.93-15.369,26.769-32.627,26.769s-25.781-14.84-32.619-26.769c-6.928-12.07-11.617-19.468-20.441-19.468s-13.513,7.4-20.441,19.468C86,46.807,77.481,61.646,60.224,61.646S34.451,46.807,27.6,34.877C20.677,22.807,15.988,15.409,7.164,15.409A7.446,7.446,0,0,1,0,7.7,7.452,7.452,0,0,1,7.164,0c17.25,0,25.773,14.848,32.619,26.778C46.7,38.839,51.4,46.237,60.224,46.237s13.513-7.4,20.441-19.459C87.511,14.848,96.034,0,113.283,0s25.773,14.848,32.611,26.769c6.928,12.07,11.617,19.468,20.449,19.468s13.521-7.4,20.449-19.468C193.638,14.848,202.162,0,219.42,0S245.2,14.848,252.055,26.769c6.919,12.07,11.617,19.468,20.457,19.468,8.824,0,13.521-7.4,20.449-19.468C299.8,14.848,308.33,0,325.588,0s25.8,14.848,32.643,26.769c6.936,12.07,11.633,19.468,20.465,19.468s13.538-7.4,20.473-19.468C406.016,14.848,414.548,0,431.814,0a7.445,7.445,0,0,1,7.155,7.7,7.44,7.44,0,0,1-7.155,7.7c-8.841,0-13.538,7.4-20.473,19.468C404.494,46.807,395.971,61.646,378.7,61.646Z" transform="translate(438.969 276.392) rotate(180)" fill="#7351fa"/>
        <path id="Trazado_1013735" data-name="Trazado 1013735" d="M378.7,61.646c-17.266,0-25.789-14.84-32.635-26.769-6.936-12.07-11.633-19.468-20.473-19.468s-13.53,7.4-20.449,19.468c-6.846,11.93-15.369,26.769-32.627,26.769s-25.789-14.84-32.635-26.769c-6.928-12.07-11.625-19.468-20.457-19.468s-13.521,7.4-20.449,19.468c-6.846,11.93-15.369,26.769-32.627,26.769s-25.781-14.84-32.619-26.769c-6.928-12.07-11.617-19.468-20.441-19.468s-13.513,7.4-20.441,19.468C86,46.807,77.481,61.646,60.224,61.646S34.451,46.807,27.6,34.877C20.677,22.807,15.988,15.409,7.164,15.409A7.446,7.446,0,0,1,0,7.7,7.452,7.452,0,0,1,7.164,0c17.25,0,25.773,14.848,32.619,26.778C46.7,38.839,51.4,46.237,60.224,46.237s13.513-7.4,20.441-19.459C87.511,14.848,96.034,0,113.283,0s25.773,14.848,32.611,26.769c6.928,12.07,11.617,19.468,20.449,19.468s13.521-7.4,20.449-19.468C193.638,14.848,202.162,0,219.42,0S245.2,14.848,252.055,26.769c6.919,12.07,11.617,19.468,20.457,19.468,8.824,0,13.521-7.4,20.449-19.468C299.8,14.848,308.33,0,325.588,0s25.8,14.848,32.643,26.769c6.936,12.07,11.633,19.468,20.465,19.468s13.538-7.4,20.473-19.468C406.016,14.848,414.548,0,431.814,0a7.445,7.445,0,0,1,7.155,7.7,7.44,7.44,0,0,1-7.155,7.7c-8.841,0-13.538,7.4-20.473,19.468C404.494,46.807,395.971,61.646,378.7,61.646Z" transform="translate(438.969 133.228) rotate(180)" fill="#7351fa"/>
        <path id="Trazado_1013736" data-name="Trazado 1013736" d="M378.7,61.646c-17.266,0-25.789-14.84-32.635-26.769-6.936-12.07-11.633-19.468-20.473-19.468s-13.53,7.4-20.449,19.468c-6.846,11.93-15.369,26.769-32.627,26.769s-25.789-14.84-32.635-26.769c-6.928-12.07-11.625-19.468-20.457-19.468s-13.521,7.4-20.449,19.468c-6.846,11.93-15.369,26.769-32.627,26.769s-25.781-14.84-32.619-26.769c-6.928-12.07-11.617-19.468-20.441-19.468s-13.513,7.4-20.441,19.468C86,46.807,77.481,61.646,60.224,61.646S34.451,46.807,27.6,34.877C20.677,22.807,15.988,15.409,7.164,15.409A7.446,7.446,0,0,1,0,7.7,7.452,7.452,0,0,1,7.164,0c17.25,0,25.773,14.848,32.619,26.778C46.7,38.839,51.4,46.237,60.224,46.237s13.513-7.4,20.441-19.459C87.511,14.848,96.034,0,113.283,0s25.773,14.848,32.611,26.769c6.928,12.07,11.617,19.468,20.449,19.468s13.521-7.4,20.449-19.468C193.638,14.848,202.162,0,219.42,0S245.2,14.848,252.055,26.769c6.919,12.07,11.617,19.468,20.457,19.468,8.824,0,13.521-7.4,20.449-19.468C299.8,14.848,308.33,0,325.588,0s25.8,14.848,32.643,26.769c6.936,12.07,11.633,19.468,20.465,19.468s13.538-7.4,20.473-19.468C406.016,14.848,414.548,0,431.814,0a7.445,7.445,0,0,1,7.155,7.7,7.44,7.44,0,0,1-7.155,7.7c-8.841,0-13.538,7.4-20.473,19.468C404.494,46.807,395.971,61.646,378.7,61.646Z" transform="translate(438.969 342.467) rotate(180)" fill="#7351fa"/>
        <path id="Trazado_1013737" data-name="Trazado 1013737" d="M378.7,61.646c-17.266,0-25.789-14.84-32.635-26.769-6.936-12.07-11.633-19.468-20.473-19.468s-13.53,7.4-20.449,19.468c-6.846,11.93-15.369,26.769-32.627,26.769s-25.789-14.84-32.635-26.769c-6.928-12.07-11.625-19.468-20.457-19.468s-13.521,7.4-20.449,19.468c-6.846,11.93-15.369,26.769-32.627,26.769s-25.781-14.84-32.619-26.769c-6.928-12.07-11.617-19.468-20.441-19.468s-13.513,7.4-20.441,19.468C86,46.807,77.481,61.646,60.224,61.646S34.451,46.807,27.6,34.877C20.677,22.807,15.988,15.409,7.164,15.409A7.446,7.446,0,0,1,0,7.7,7.452,7.452,0,0,1,7.164,0c17.25,0,25.773,14.848,32.619,26.778C46.7,38.839,51.4,46.237,60.224,46.237s13.513-7.4,20.441-19.459C87.511,14.848,96.034,0,113.283,0s25.773,14.848,32.611,26.769c6.928,12.07,11.617,19.468,20.449,19.468s13.521-7.4,20.449-19.468C193.638,14.848,202.162,0,219.42,0S245.2,14.848,252.055,26.769c6.919,12.07,11.617,19.468,20.457,19.468,8.824,0,13.521-7.4,20.449-19.468C299.8,14.848,308.33,0,325.588,0s25.8,14.848,32.643,26.769c6.936,12.07,11.633,19.468,20.465,19.468s13.538-7.4,20.473-19.468C406.016,14.848,414.548,0,431.814,0a7.445,7.445,0,0,1,7.155,7.7,7.44,7.44,0,0,1-7.155,7.7c-8.841,0-13.538,7.4-20.473,19.468C404.494,46.807,395.971,61.646,378.7,61.646Z" transform="translate(438.969 204.81) rotate(180)" fill="#7351fa"/>
        <path id="Trazado_1013738" data-name="Trazado 1013738" d="M378.7,61.646c-17.266,0-25.789-14.84-32.635-26.769-6.936-12.07-11.633-19.468-20.473-19.468s-13.53,7.4-20.449,19.468c-6.846,11.93-15.369,26.769-32.627,26.769s-25.789-14.84-32.635-26.769c-6.928-12.07-11.625-19.468-20.457-19.468s-13.521,7.4-20.449,19.468c-6.846,11.93-15.369,26.769-32.627,26.769s-25.781-14.84-32.619-26.769c-6.928-12.07-11.617-19.468-20.441-19.468s-13.513,7.4-20.441,19.468C86,46.807,77.481,61.646,60.224,61.646S34.451,46.807,27.6,34.877C20.677,22.807,15.988,15.409,7.164,15.409A7.446,7.446,0,0,1,0,7.7,7.452,7.452,0,0,1,7.164,0c17.25,0,25.773,14.848,32.619,26.778C46.7,38.839,51.4,46.237,60.224,46.237s13.513-7.4,20.441-19.459C87.511,14.848,96.034,0,113.283,0s25.773,14.848,32.611,26.769c6.928,12.07,11.617,19.468,20.449,19.468s13.521-7.4,20.449-19.468C193.638,14.848,202.162,0,219.42,0S245.2,14.848,252.055,26.769c6.919,12.07,11.617,19.468,20.457,19.468,8.824,0,13.521-7.4,20.449-19.468C299.8,14.848,308.33,0,325.588,0s25.8,14.848,32.643,26.769c6.936,12.07,11.633,19.468,20.465,19.468s13.538-7.4,20.473-19.468C406.016,14.848,414.548,0,431.814,0a7.445,7.445,0,0,1,7.155,7.7,7.44,7.44,0,0,1-7.155,7.7c-8.841,0-13.538,7.4-20.473,19.468C404.494,46.807,395.971,61.646,378.7,61.646Z" transform="translate(438.969 414.048) rotate(180)" fill="#7351fa"/>
        <path id="Trazado_1013739" data-name="Trazado 1013739" d="M378.7,61.646c-17.266,0-25.789-14.84-32.635-26.769-6.936-12.07-11.633-19.468-20.473-19.468s-13.53,7.4-20.449,19.468c-6.846,11.93-15.369,26.769-32.627,26.769s-25.789-14.84-32.635-26.769c-6.928-12.07-11.625-19.468-20.457-19.468s-13.521,7.4-20.449,19.468c-6.846,11.93-15.369,26.769-32.627,26.769s-25.781-14.84-32.619-26.769c-6.928-12.07-11.617-19.468-20.441-19.468s-13.513,7.4-20.441,19.468C86,46.807,77.481,61.646,60.224,61.646S34.451,46.807,27.6,34.877C20.677,22.807,15.988,15.409,7.164,15.409A7.446,7.446,0,0,1,0,7.7,7.452,7.452,0,0,1,7.164,0c17.25,0,25.773,14.848,32.619,26.778C46.7,38.839,51.4,46.237,60.224,46.237s13.513-7.4,20.441-19.459C87.511,14.848,96.034,0,113.283,0s25.773,14.848,32.611,26.769c6.928,12.07,11.617,19.468,20.449,19.468s13.521-7.4,20.449-19.468C193.638,14.848,202.162,0,219.42,0S245.2,14.848,252.055,26.769c6.919,12.07,11.617,19.468,20.457,19.468,8.824,0,13.521-7.4,20.449-19.468C299.8,14.848,308.33,0,325.588,0s25.8,14.848,32.643,26.769c6.936,12.07,11.633,19.468,20.465,19.468s13.538-7.4,20.473-19.468C406.016,14.848,414.548,0,431.814,0a7.445,7.445,0,0,1,7.155,7.7,7.44,7.44,0,0,1-7.155,7.7c-8.841,0-13.538,7.4-20.473,19.468C404.494,46.807,395.971,61.646,378.7,61.646Z" transform="translate(438.969 61.646) rotate(180)" fill="#7351fa"/>
      </g>
      <path id="Trazado_1013740" data-name="Trazado 1013740" d="M100.5,0C45,0,0,43.849,0,97.94s45,97.939,100.5,97.939" transform="translate(-137.141 5766.268) rotate(-90)" fill="#7351fa" opacity="0.22"/>
      <path id="Trazado_1013741" data-name="Trazado 1013741" d="M100.5,0C45,0,0,43.849,0,97.94s45,97.939,100.5,97.939" transform="translate(-130.979 5566.815) rotate(-90)" fill="#7351fa" opacity="0.22"/>
      <path id="Trazado_1013742" data-name="Trazado 1013742" d="M100.5,0C45,0,0,43.849,0,97.94s45,97.939,100.5,97.939" transform="translate(-137.141 5667.319) rotate(-90)" fill="#7351fa" opacity="0.22"/>
      <path id="Trazado_1013743" data-name="Trazado 1013743" d="M100.5,0C45,0,0,43.849,0,97.94s45,97.939,100.5,97.939" transform="translate(-130.979 5467.867) rotate(-90)" fill="#7351fa" opacity="0.22"/>
      <path id="Trazado_1013744" data-name="Trazado 1013744" d="M357.439,0C554.848,0,714.879,169.6,714.879,378.81s-160.031,378.81-357.439,378.81S0,588.021,0,378.81,160.031,0,357.439,0Z" transform="translate(135.745 5592.8)" fill="none" opacity="0.11"/>
    </g>
    <path id="Trazado_1046322" data-name="Trazado 1046322" d="M7.859,12.07h-4.5v3.047H8.641V17H1.016V5.625H8.625v1.9H3.359v2.711h4.5Zm6.586,2.594a.727.727,0,0,0-.41-.652,4.659,4.659,0,0,0-1.316-.426Q9.7,12.953,9.7,11.023a2.323,2.323,0,0,1,.934-1.879,3.766,3.766,0,0,1,2.441-.754,4.053,4.053,0,0,1,2.574.758,2.388,2.388,0,0,1,.965,1.969H14.359a1.092,1.092,0,0,0-.312-.8A1.322,1.322,0,0,0,13.07,10a1.351,1.351,0,0,0-.883.258.814.814,0,0,0-.312.656.7.7,0,0,0,.355.605,3.657,3.657,0,0,0,1.2.4,9.8,9.8,0,0,1,1.422.379,2.336,2.336,0,0,1,1.789,2.273,2.2,2.2,0,0,1-.992,1.871,4.28,4.28,0,0,1-2.562.715,4.47,4.47,0,0,1-1.887-.379,3.166,3.166,0,0,1-1.293-1.039,2.414,2.414,0,0,1-.469-1.426h2.141a1.179,1.179,0,0,0,.445.922,1.766,1.766,0,0,0,1.109.32,1.635,1.635,0,0,0,.98-.246A.766.766,0,0,0,14.445,14.664ZM25.7,12.852a5.07,5.07,0,0,1-.887,3.129,2.843,2.843,0,0,1-2.395,1.176,2.633,2.633,0,0,1-2.07-.891V20.25H18.094V8.547h2.094l.078.828a2.654,2.654,0,0,1,2.141-.984,2.862,2.862,0,0,1,2.43,1.156,5.207,5.207,0,0,1,.867,3.188Zm-2.258-.164a3.327,3.327,0,0,0-.418-1.82,1.361,1.361,0,0,0-1.215-.641,1.478,1.478,0,0,0-1.461.813V14.5a1.5,1.5,0,0,0,1.477.836Q23.445,15.336,23.445,12.688Zm7.547,4.469a4.15,4.15,0,0,1-3.027-1.141A4.054,4.054,0,0,1,26.8,12.977v-.219a5.106,5.106,0,0,1,.492-2.277,3.612,3.612,0,0,1,1.395-1.547,3.914,3.914,0,0,1,2.059-.543,3.508,3.508,0,0,1,2.73,1.094,4.444,4.444,0,0,1,1,3.1v.922H29.086a2.1,2.1,0,0,0,.66,1.328,2,2,0,0,0,1.395.5,2.437,2.437,0,0,0,2.039-.945l1.109,1.242a3.389,3.389,0,0,1-1.375,1.121A4.511,4.511,0,0,1,30.992,17.156Zm-.258-6.937a1.414,1.414,0,0,0-1.09.453,2.341,2.341,0,0,0-.535,1.3H32.25v-.18a1.669,1.669,0,0,0-.406-1.16A1.459,1.459,0,0,0,30.734,10.219Zm8.531,5.117a1.481,1.481,0,0,0,1.016-.344,1.2,1.2,0,0,0,.406-.914H42.8a2.9,2.9,0,0,1-.469,1.574,3.093,3.093,0,0,1-1.262,1.109,3.949,3.949,0,0,1-1.77.395A3.67,3.67,0,0,1,36.445,16,4.56,4.56,0,0,1,35.4,12.82v-.148a4.508,4.508,0,0,1,1.039-3.117,3.627,3.627,0,0,1,2.852-1.164,3.555,3.555,0,0,1,2.543.9,3.2,3.2,0,0,1,.973,2.4H40.688a1.539,1.539,0,0,0-.406-1.066,1.513,1.513,0,0,0-2.223.164,3.324,3.324,0,0,0-.4,1.863v.234a3.366,3.366,0,0,0,.4,1.875A1.378,1.378,0,0,0,39.266,15.336ZM46.531,17H44.273V8.547h2.258ZM45.867,5.117h2.461L46.164,7.539H44.328ZM49.023,17V10.2H47.766V8.547h1.258V8.156A3.17,3.17,0,0,1,50,5.7a3.945,3.945,0,0,1,2.723-.863,9.031,9.031,0,0,1,2.563.461l-.328,1.867a10,10,0,0,0-1.187-.293,5.835,5.835,0,0,0-.906-.066q-1.578,0-1.578,1.4v.344h1.664V10.2H51.289V17Zm7.32,0H54.078V8.547h2.266Zm5.383-1.664a1.481,1.481,0,0,0,1.016-.344,1.2,1.2,0,0,0,.406-.914h2.117a2.9,2.9,0,0,1-.469,1.574,3.093,3.093,0,0,1-1.262,1.109,3.949,3.949,0,0,1-1.77.395A3.67,3.67,0,0,1,58.906,16a4.56,4.56,0,0,1-1.047-3.184v-.148A4.508,4.508,0,0,1,58.9,9.555,3.627,3.627,0,0,1,61.75,8.391a3.555,3.555,0,0,1,2.543.9,3.2,3.2,0,0,1,.973,2.4H63.148a1.539,1.539,0,0,0-.406-1.066,1.513,1.513,0,0,0-2.223.164,3.324,3.324,0,0,0-.4,1.863v.234a3.366,3.366,0,0,0,.4,1.875A1.378,1.378,0,0,0,61.727,15.336ZM66.2,12.7a5.013,5.013,0,0,1,.484-2.242A3.546,3.546,0,0,1,68.082,8.93,4.069,4.069,0,0,1,70.2,8.391a3.849,3.849,0,0,1,2.793,1.047A4.2,4.2,0,0,1,74.2,12.281l.016.578a4.418,4.418,0,0,1-1.086,3.121,4.209,4.209,0,0,1-5.832,0A4.5,4.5,0,0,1,66.2,12.8Zm2.258.164a3.151,3.151,0,0,0,.453,1.84,1.629,1.629,0,0,0,2.578.008,3.448,3.448,0,0,0,.461-2.012,3.12,3.12,0,0,0-.461-1.828,1.5,1.5,0,0,0-1.3-.648,1.475,1.475,0,0,0-1.281.645A3.506,3.506,0,0,0,68.461,12.859Zm7.25,3.031a1.137,1.137,0,0,1,.363-.875,1.412,1.412,0,0,1,1.828,0,1.137,1.137,0,0,1,.363.875,1.121,1.121,0,0,1-.359.863,1.435,1.435,0,0,1-1.836,0A1.121,1.121,0,0,1,75.711,15.891Zm0-6.4a1.137,1.137,0,0,1,.363-.875,1.412,1.412,0,0,1,1.828,0,1.137,1.137,0,0,1,.363.875,1.121,1.121,0,0,1-.359.863,1.435,1.435,0,0,1-1.836,0A1.121,1.121,0,0,1,75.711,9.492Zm12.125,7.664a3.693,3.693,0,0,1-2.8-1.129,4.19,4.19,0,0,1-1.078-3.02v-.266a5.073,5.073,0,0,1,.48-2.246,3.748,3.748,0,0,1,1.344-1.547,3.378,3.378,0,0,1,1.871-.559,3.166,3.166,0,0,1,2.563,1.086,4.7,4.7,0,0,1,.914,3.109v.6H85.406a3,3,0,0,0,.73,2.02,2.3,2.3,0,0,0,1.777.77,2.517,2.517,0,0,0,1.3-.312,3.259,3.259,0,0,0,.93-.828l.883.688A3.55,3.55,0,0,1,87.836,17.156Zm-.18-7.578a1.928,1.928,0,0,0-1.469.637A3.1,3.1,0,0,0,85.453,12h4.234v-.109a2.753,2.753,0,0,0-.594-1.707A1.815,1.815,0,0,0,87.656,9.578ZM94.375,17H92.93V5h1.445Zm5.891-4.3a4.993,4.993,0,0,1,.488-2.234,3.643,3.643,0,0,1,1.359-1.531,3.7,3.7,0,0,1,1.988-.539,3.565,3.565,0,0,1,2.793,1.2,4.6,4.6,0,0,1,1.066,3.18v.1a5.036,5.036,0,0,1-.473,2.215,3.589,3.589,0,0,1-1.352,1.527,3.743,3.743,0,0,1-2.02.547,3.556,3.556,0,0,1-2.785-1.2,4.575,4.575,0,0,1-1.066-3.164Zm1.453.172a3.616,3.616,0,0,0,.652,2.258,2.211,2.211,0,0,0,3.5-.012,3.955,3.955,0,0,0,.648-2.418,3.61,3.61,0,0,0-.66-2.254,2.1,2.1,0,0,0-1.754-.863,2.075,2.075,0,0,0-1.727.852A3.925,3.925,0,0,0,101.719,12.867Zm15.211,0a5.026,5.026,0,0,1-.891,3.113,2.846,2.846,0,0,1-2.391,1.176,2.947,2.947,0,0,1-2.477-1.133L111.1,17h-1.328V5h1.445V9.477a2.93,2.93,0,0,1,2.414-1.086,2.863,2.863,0,0,1,2.418,1.164,5.177,5.177,0,0,1,.879,3.188Zm-1.445-.164a3.906,3.906,0,0,0-.57-2.281,1.888,1.888,0,0,0-1.641-.8,2.122,2.122,0,0,0-2.055,1.328V14.6a2.181,2.181,0,0,0,2.07,1.328,1.878,1.878,0,0,0,1.617-.8A4.153,4.153,0,0,0,115.484,12.7Zm4.758-4.156v9.43q0,2.438-2.211,2.438a2.682,2.682,0,0,1-.883-.141V19.117a2.794,2.794,0,0,0,.656.063.982.982,0,0,0,.738-.262,1.294,1.294,0,0,0,.254-.91V8.547ZM118.648,6.3a.867.867,0,0,1,.215-.59.79.79,0,0,1,.629-.246.819.819,0,0,1,.641.242.854.854,0,0,1,.219.594.826.826,0,0,1-.219.586.834.834,0,0,1-.641.234.808.808,0,0,1-.633-.234A.843.843,0,0,1,118.648,6.3Zm7.43,10.852a3.693,3.693,0,0,1-2.8-1.129,4.19,4.19,0,0,1-1.078-3.02v-.266a5.073,5.073,0,0,1,.48-2.246,3.748,3.748,0,0,1,1.344-1.547,3.378,3.378,0,0,1,1.871-.559,3.166,3.166,0,0,1,2.563,1.086,4.7,4.7,0,0,1,.914,3.109v.6h-5.727a3,3,0,0,0,.73,2.02,2.3,2.3,0,0,0,1.777.77,2.517,2.517,0,0,0,1.3-.312,3.259,3.259,0,0,0,.93-.828l.883.688A3.55,3.55,0,0,1,126.078,17.156Zm-.18-7.578a1.928,1.928,0,0,0-1.469.637A3.1,3.1,0,0,0,123.7,12h4.234v-.109a2.753,2.753,0,0,0-.594-1.707A1.815,1.815,0,0,0,125.9,9.578ZM133.008,6.5V8.547h1.578V9.664h-1.578v5.242a1.171,1.171,0,0,0,.211.762.888.888,0,0,0,.719.254,3.5,3.5,0,0,0,.688-.094V17a4.19,4.19,0,0,1-1.109.156,1.8,1.8,0,0,1-1.461-.586,2.517,2.517,0,0,1-.492-1.664V9.664h-1.539V8.547h1.539V6.5ZM137.844,17H136.4V8.547h1.445ZM136.281,6.3a.863.863,0,0,1,.215-.594.807.807,0,0,1,.637-.242.819.819,0,0,1,.641.242.854.854,0,0,1,.219.594.826.826,0,0,1-.219.586.834.834,0,0,1-.641.234.821.821,0,0,1-.637-.234A.834.834,0,0,1,136.281,6.3Zm6.664,8.734,2.094-6.492h1.477L143.484,17h-1.1L139.32,8.547H140.8Zm4.461-2.344a4.993,4.993,0,0,1,.488-2.234,3.642,3.642,0,0,1,1.359-1.531,3.7,3.7,0,0,1,1.988-.539,3.565,3.565,0,0,1,2.793,1.2,4.6,4.6,0,0,1,1.066,3.18v.1a5.036,5.036,0,0,1-.473,2.215,3.589,3.589,0,0,1-1.352,1.527,3.743,3.743,0,0,1-2.02.547,3.556,3.556,0,0,1-2.785-1.2,4.575,4.575,0,0,1-1.066-3.164Zm1.453.172a3.616,3.616,0,0,0,.652,2.258,2.211,2.211,0,0,0,3.5-.012,3.954,3.954,0,0,0,.648-2.418,3.61,3.61,0,0,0-.66-2.254,2.1,2.1,0,0,0-1.754-.863,2.075,2.075,0,0,0-1.727.852A3.925,3.925,0,0,0,148.859,12.867Zm11.664-.164a4.952,4.952,0,0,1,.922-3.129,3.137,3.137,0,0,1,4.766-.168V5h1.445V17h-1.328l-.07-.906a2.943,2.943,0,0,1-2.414,1.063,2.887,2.887,0,0,1-2.395-1.2,5.008,5.008,0,0,1-.926-3.141Zm1.445.164a3.749,3.749,0,0,0,.594,2.25,1.919,1.919,0,0,0,1.641.813,2.108,2.108,0,0,0,2.008-1.234V10.813a2.125,2.125,0,0,0-1.992-1.2,1.929,1.929,0,0,0-1.656.82A4.128,4.128,0,0,0,161.969,12.867Zm11.438,4.289a3.693,3.693,0,0,1-2.8-1.129,4.19,4.19,0,0,1-1.078-3.02v-.266a5.073,5.073,0,0,1,.48-2.246,3.748,3.748,0,0,1,1.344-1.547,3.378,3.378,0,0,1,1.871-.559,3.166,3.166,0,0,1,2.563,1.086,4.7,4.7,0,0,1,.914,3.109v.6h-5.727a3,3,0,0,0,.73,2.02,2.3,2.3,0,0,0,1.777.77,2.517,2.517,0,0,0,1.3-.312,3.258,3.258,0,0,0,.93-.828l.883.688A3.55,3.55,0,0,1,173.406,17.156Zm-.18-7.578a1.928,1.928,0,0,0-1.469.637A3.1,3.1,0,0,0,171.023,12h4.234v-.109a2.753,2.753,0,0,0-.594-1.707A1.815,1.815,0,0,0,173.227,9.578Zm12.3,3.289a5.026,5.026,0,0,1-.891,3.113,2.846,2.846,0,0,1-2.391,1.176,2.947,2.947,0,0,1-2.477-1.133L179.7,17h-1.328V5h1.445V9.477a2.93,2.93,0,0,1,2.414-1.086,2.863,2.863,0,0,1,2.418,1.164,5.177,5.177,0,0,1,.879,3.188Zm-1.445-.164a3.906,3.906,0,0,0-.57-2.281,1.888,1.888,0,0,0-1.641-.8,2.122,2.122,0,0,0-2.055,1.328V14.6a2.181,2.181,0,0,0,2.07,1.328,1.878,1.878,0,0,0,1.617-.8A4.153,4.153,0,0,0,184.086,12.7Zm6.773,4.453a3.693,3.693,0,0,1-2.8-1.129,4.19,4.19,0,0,1-1.078-3.02v-.266a5.073,5.073,0,0,1,.48-2.246,3.748,3.748,0,0,1,1.344-1.547,3.378,3.378,0,0,1,1.871-.559,3.166,3.166,0,0,1,2.563,1.086,4.7,4.7,0,0,1,.914,3.109v.6H188.43a3,3,0,0,0,.73,2.02,2.3,2.3,0,0,0,1.777.77,2.517,2.517,0,0,0,1.3-.312,3.258,3.258,0,0,0,.93-.828l.883.688A3.55,3.55,0,0,1,190.859,17.156Zm-.18-7.578a1.928,1.928,0,0,0-1.469.637A3.1,3.1,0,0,0,188.477,12h4.234v-.109a2.753,2.753,0,0,0-.594-1.707A1.815,1.815,0,0,0,190.68,9.578ZM4.6,41.156a3.693,3.693,0,0,1-2.8-1.129,4.19,4.19,0,0,1-1.078-3.02v-.266a5.073,5.073,0,0,1,.48-2.246,3.748,3.748,0,0,1,1.344-1.547,3.378,3.378,0,0,1,1.871-.559,3.166,3.166,0,0,1,2.563,1.086A4.7,4.7,0,0,1,7.9,36.586v.6H2.172a3,3,0,0,0,.73,2.02,2.3,2.3,0,0,0,1.777.77,2.517,2.517,0,0,0,1.3-.312,3.259,3.259,0,0,0,.93-.828l.883.688A3.55,3.55,0,0,1,4.6,41.156Zm-.18-7.578a1.928,1.928,0,0,0-1.469.637A3.1,3.1,0,0,0,2.219,36H6.453v-.109a2.753,2.753,0,0,0-.594-1.707A1.815,1.815,0,0,0,4.422,33.578Zm10.07,5.18a1.064,1.064,0,0,0-.441-.91,4.249,4.249,0,0,0-1.539-.559,7.277,7.277,0,0,1-1.742-.562,2.479,2.479,0,0,1-.953-.781,1.869,1.869,0,0,1-.309-1.078,2.193,2.193,0,0,1,.879-1.758,3.432,3.432,0,0,1,2.246-.719,3.532,3.532,0,0,1,2.332.742,2.357,2.357,0,0,1,.895,1.9H14.406a1.3,1.3,0,0,0-.5-1.023,1.888,1.888,0,0,0-1.27-.43,1.976,1.976,0,0,0-1.234.344,1.082,1.082,0,0,0-.445.9.877.877,0,0,0,.414.789,5.1,5.1,0,0,0,1.5.508,7.8,7.8,0,0,1,1.754.578,2.558,2.558,0,0,1,1,.809,1.988,1.988,0,0,1,.324,1.152,2.163,2.163,0,0,1-.906,1.816,3.8,3.8,0,0,1-2.352.684,4.257,4.257,0,0,1-1.8-.359,2.922,2.922,0,0,1-1.223-1A2.42,2.42,0,0,1,9.219,38.4h1.445a1.5,1.5,0,0,0,.582,1.152,2.258,2.258,0,0,0,1.434.426A2.331,2.331,0,0,0,14,39.645,1.02,1.02,0,0,0,14.492,38.758ZM19.781,30.5v2.047h1.578v1.117H19.781v5.242a1.171,1.171,0,0,0,.211.762.888.888,0,0,0,.719.254,3.5,3.5,0,0,0,.688-.094V41a4.19,4.19,0,0,1-1.109.156,1.8,1.8,0,0,1-1.461-.586,2.517,2.517,0,0,1-.492-1.664V33.664H16.8V32.547h1.539V30.5ZM28.266,41a3.036,3.036,0,0,1-.2-.891,3.225,3.225,0,0,1-2.406,1.047,2.984,2.984,0,0,1-2.051-.707,2.287,2.287,0,0,1-.8-1.793,2.39,2.39,0,0,1,1-2.051,4.733,4.733,0,0,1,2.824-.73h1.406v-.664A1.623,1.623,0,0,0,27.586,34a1.821,1.821,0,0,0-1.336-.449,2.107,2.107,0,0,0-1.3.391,1.151,1.151,0,0,0-.523.945H22.977a2,2,0,0,1,.449-1.223,3.066,3.066,0,0,1,1.219-.934,4.1,4.1,0,0,1,1.691-.344,3.342,3.342,0,0,1,2.289.73,2.635,2.635,0,0,1,.859,2.012v3.891a4.757,4.757,0,0,0,.3,1.852V41Zm-2.4-1.1a2.54,2.54,0,0,0,1.289-.352,2.127,2.127,0,0,0,.883-.914V36.9H26.906q-2.656,0-2.656,1.555a1.316,1.316,0,0,0,.453,1.063A1.742,1.742,0,0,0,25.867,39.9Zm9.969-6.055a4.331,4.331,0,0,0-.711-.055A1.9,1.9,0,0,0,33.2,35v6H31.75V32.547h1.406l.023.977A2.251,2.251,0,0,1,35.2,32.391a1.477,1.477,0,0,1,.641.109Zm8.68,6.133a2.082,2.082,0,0,0,1.352-.469,1.649,1.649,0,0,0,.641-1.172h1.367a2.621,2.621,0,0,1-.5,1.383,3.293,3.293,0,0,1-1.23,1.047,3.55,3.55,0,0,1-1.629.391A3.482,3.482,0,0,1,41.77,40a4.59,4.59,0,0,1-1.02-3.152v-.242a5.089,5.089,0,0,1,.453-2.2,3.451,3.451,0,0,1,1.3-1.492,3.7,3.7,0,0,1,2-.531,3.39,3.39,0,0,1,2.363.852,3.043,3.043,0,0,1,1,2.211H46.508a1.992,1.992,0,0,0-.621-1.348,1.932,1.932,0,0,0-1.379-.527,2.023,2.023,0,0,0-1.707.793,3.724,3.724,0,0,0-.605,2.293v.273a3.65,3.65,0,0,0,.6,2.25A2.033,2.033,0,0,0,44.516,39.977ZM51.07,41H49.625V29H51.07ZM58.6,41a3.036,3.036,0,0,1-.2-.891,3.225,3.225,0,0,1-2.406,1.047,2.984,2.984,0,0,1-2.051-.707,2.287,2.287,0,0,1-.8-1.793,2.39,2.39,0,0,1,1-2.051,4.733,4.733,0,0,1,2.824-.73h1.406v-.664A1.623,1.623,0,0,0,57.922,34a1.821,1.821,0,0,0-1.336-.449,2.107,2.107,0,0,0-1.3.391,1.151,1.151,0,0,0-.523.945H53.313a2,2,0,0,1,.449-1.223,3.066,3.066,0,0,1,1.219-.934,4.1,4.1,0,0,1,1.691-.344,3.342,3.342,0,0,1,2.289.73,2.635,2.635,0,0,1,.859,2.012v3.891a4.757,4.757,0,0,0,.3,1.852V41Zm-2.4-1.1a2.54,2.54,0,0,0,1.289-.352,2.127,2.127,0,0,0,.883-.914V36.9H57.242q-2.656,0-2.656,1.555a1.316,1.316,0,0,0,.453,1.063A1.742,1.742,0,0,0,56.2,39.9Zm9.969-6.055a4.331,4.331,0,0,0-.711-.055A1.9,1.9,0,0,0,63.531,35v6H62.086V32.547h1.406l.023.977a2.251,2.251,0,0,1,2.016-1.133,1.477,1.477,0,0,1,.641.109ZM72.406,41a3.036,3.036,0,0,1-.2-.891A3.225,3.225,0,0,1,69.8,41.156a2.984,2.984,0,0,1-2.051-.707,2.288,2.288,0,0,1-.8-1.793,2.39,2.39,0,0,1,1-2.051,4.733,4.733,0,0,1,2.824-.73H72.18v-.664A1.623,1.623,0,0,0,71.727,34a1.821,1.821,0,0,0-1.336-.449,2.107,2.107,0,0,0-1.3.391,1.151,1.151,0,0,0-.523.945H67.117a2,2,0,0,1,.449-1.223,3.066,3.066,0,0,1,1.219-.934,4.1,4.1,0,0,1,1.691-.344,3.342,3.342,0,0,1,2.289.73,2.635,2.635,0,0,1,.859,2.012v3.891a4.757,4.757,0,0,0,.3,1.852V41Zm-2.4-1.1a2.54,2.54,0,0,0,1.289-.352,2.127,2.127,0,0,0,.883-.914V36.9H71.047q-2.656,0-2.656,1.555a1.316,1.316,0,0,0,.453,1.063A1.742,1.742,0,0,0,70.008,39.9Zm7.242-7.352.039.938A3.122,3.122,0,0,1,79.8,32.391a2.417,2.417,0,0,1,2.414,1.359,3.2,3.2,0,0,1,1.1-.984,3.242,3.242,0,0,1,1.6-.375q2.781,0,2.828,2.945V41H86.289V35.422a1.941,1.941,0,0,0-.414-1.355,1.823,1.823,0,0,0-1.391-.449,1.916,1.916,0,0,0-1.336.48,1.949,1.949,0,0,0-.617,1.293V41H81.078V35.461a1.613,1.613,0,0,0-1.8-1.844,1.934,1.934,0,0,0-1.945,1.211V41H75.883V32.547Zm16.172,8.609a3.693,3.693,0,0,1-2.8-1.129,4.19,4.19,0,0,1-1.078-3.02v-.266a5.073,5.073,0,0,1,.48-2.246,3.748,3.748,0,0,1,1.344-1.547,3.378,3.378,0,0,1,1.871-.559A3.166,3.166,0,0,1,95.8,33.477a4.7,4.7,0,0,1,.914,3.109v.6H90.992a3,3,0,0,0,.73,2.02,2.3,2.3,0,0,0,1.777.77,2.517,2.517,0,0,0,1.3-.312,3.259,3.259,0,0,0,.93-.828l.883.688A3.55,3.55,0,0,1,93.422,41.156Zm-.18-7.578a1.928,1.928,0,0,0-1.469.637A3.1,3.1,0,0,0,91.039,36h4.234v-.109a2.753,2.753,0,0,0-.594-1.707A1.815,1.815,0,0,0,93.242,33.578Zm6.516-1.031.047,1.063a3.08,3.08,0,0,1,2.531-1.219q2.68,0,2.7,3.023V41h-1.445V35.406a1.946,1.946,0,0,0-.418-1.352,1.675,1.675,0,0,0-1.277-.437,2.086,2.086,0,0,0-1.234.375,2.546,2.546,0,0,0-.828.984V41H98.391V32.547ZM109.18,30.5v2.047h1.578v1.117H109.18v5.242a1.171,1.171,0,0,0,.211.762.888.888,0,0,0,.719.254,3.5,3.5,0,0,0,.688-.094V41a4.19,4.19,0,0,1-1.109.156,1.8,1.8,0,0,1-1.461-.586,2.517,2.517,0,0,1-.492-1.664V33.664H106.2V32.547h1.539V30.5Zm6.773,10.656a3.693,3.693,0,0,1-2.8-1.129,4.19,4.19,0,0,1-1.078-3.02v-.266a5.073,5.073,0,0,1,.48-2.246,3.748,3.748,0,0,1,1.344-1.547,3.378,3.378,0,0,1,1.871-.559,3.166,3.166,0,0,1,2.563,1.086,4.7,4.7,0,0,1,.914,3.109v.6h-5.727a3,3,0,0,0,.73,2.02,2.3,2.3,0,0,0,1.777.77,2.517,2.517,0,0,0,1.3-.312,3.259,3.259,0,0,0,.93-.828l.883.688A3.55,3.55,0,0,1,115.953,41.156Zm-.18-7.578a1.928,1.928,0,0,0-1.469.637A3.1,3.1,0,0,0,113.57,36H117.8v-.109a2.753,2.753,0,0,0-.594-1.707A1.815,1.815,0,0,0,115.773,33.578Zm8.758,3.125a4.952,4.952,0,0,1,.922-3.129,3.137,3.137,0,0,1,4.766-.168V29h1.445V41h-1.328l-.07-.906a2.943,2.943,0,0,1-2.414,1.063,2.887,2.887,0,0,1-2.395-1.2,5.008,5.008,0,0,1-.926-3.141Zm1.445.164a3.749,3.749,0,0,0,.594,2.25,1.92,1.92,0,0,0,1.641.813,2.108,2.108,0,0,0,2.008-1.234V34.813a2.125,2.125,0,0,0-1.992-1.2,1.929,1.929,0,0,0-1.656.82A4.128,4.128,0,0,0,125.977,36.867Zm11.438,4.289a3.693,3.693,0,0,1-2.8-1.129,4.19,4.19,0,0,1-1.078-3.02v-.266a5.073,5.073,0,0,1,.48-2.246,3.748,3.748,0,0,1,1.344-1.547,3.378,3.378,0,0,1,1.871-.559,3.166,3.166,0,0,1,2.563,1.086,4.7,4.7,0,0,1,.914,3.109v.6h-5.727a3,3,0,0,0,.73,2.02,2.3,2.3,0,0,0,1.777.77,2.517,2.517,0,0,0,1.3-.312,3.258,3.258,0,0,0,.93-.828l.883.688A3.55,3.55,0,0,1,137.414,41.156Zm-.18-7.578a1.928,1.928,0,0,0-1.469.637A3.1,3.1,0,0,0,135.031,36h4.234v-.109a2.753,2.753,0,0,0-.594-1.707A1.815,1.815,0,0,0,137.234,33.578ZM142.867,41V33.664h-1.336V32.547h1.336v-.719a2.937,2.937,0,0,1,.809-2.2,3.136,3.136,0,0,1,2.285-.789,6.881,6.881,0,0,1,2.211.477l-.242,1.219a5.008,5.008,0,0,0-1.859-.391,1.819,1.819,0,0,0-1.34.418,1.723,1.723,0,0,0-.41,1.254v.734h1.727v1.117H144.32V41Zm6.023,0h-1.453V32.547h1.453Zm3.719-8.453.047,1.063a3.08,3.08,0,0,1,2.531-1.219q2.68,0,2.7,3.023V41h-1.445V35.406a1.946,1.946,0,0,0-.418-1.352,1.675,1.675,0,0,0-1.277-.437,2.086,2.086,0,0,0-1.234.375,2.546,2.546,0,0,0-.828.984V41h-1.445V32.547ZM161.641,41H160.2V32.547h1.445Zm-1.562-10.7a.863.863,0,0,1,.215-.594.807.807,0,0,1,.637-.242.819.819,0,0,1,.641.242.854.854,0,0,1,.219.594.826.826,0,0,1-.219.586.834.834,0,0,1-.641.234.821.821,0,0,1-.637-.234A.834.834,0,0,1,160.078,30.3Zm3.523,6.4a4.952,4.952,0,0,1,.922-3.129,3.137,3.137,0,0,1,4.766-.168V29h1.445V41h-1.328l-.07-.906a2.943,2.943,0,0,1-2.414,1.063,2.887,2.887,0,0,1-2.395-1.2,5.008,5.008,0,0,1-.926-3.141Zm1.445.164a3.749,3.749,0,0,0,.594,2.25,1.919,1.919,0,0,0,1.641.813,2.108,2.108,0,0,0,2.008-1.234V34.813a2.125,2.125,0,0,0-1.992-1.2,1.929,1.929,0,0,0-1.656.82A4.128,4.128,0,0,0,165.047,36.867Zm7.547-.172a4.993,4.993,0,0,1,.488-2.234,3.642,3.642,0,0,1,1.359-1.531,3.7,3.7,0,0,1,1.988-.539,3.565,3.565,0,0,1,2.793,1.2,4.6,4.6,0,0,1,1.066,3.18v.1a5.036,5.036,0,0,1-.473,2.215,3.589,3.589,0,0,1-1.352,1.527,3.743,3.743,0,0,1-2.02.547,3.556,3.556,0,0,1-2.785-1.2,4.575,4.575,0,0,1-1.066-3.164Zm1.453.172a3.616,3.616,0,0,0,.652,2.258,2.211,2.211,0,0,0,3.5-.012,3.954,3.954,0,0,0,.648-2.418,3.61,3.61,0,0,0-.66-2.254,2.1,2.1,0,0,0-1.754-.863,2.075,2.075,0,0,0-1.727.852A3.925,3.925,0,0,0,174.047,36.867Zm14.781,2.016,1.969-6.336h1.547l-3.4,9.758q-.789,2.109-2.508,2.109l-.273-.023-.539-.1V43.117l.391.031a1.923,1.923,0,0,0,1.145-.3,2.148,2.148,0,0,0,.676-1.086l.32-.859-3.016-8.359h1.578ZM2.461,56.547l.047,1.063a3.08,3.08,0,0,1,2.531-1.219q2.68,0,2.7,3.023V65H6.3V59.406a1.946,1.946,0,0,0-.418-1.352A1.675,1.675,0,0,0,4.6,57.617a2.086,2.086,0,0,0-1.234.375,2.546,2.546,0,0,0-.828.984V65H1.094V56.547ZM9.539,60.7a4.993,4.993,0,0,1,.488-2.234,3.643,3.643,0,0,1,1.359-1.531,3.7,3.7,0,0,1,1.988-.539,3.565,3.565,0,0,1,2.793,1.2,4.6,4.6,0,0,1,1.066,3.18v.1a5.036,5.036,0,0,1-.473,2.215,3.589,3.589,0,0,1-1.352,1.527,3.743,3.743,0,0,1-2.02.547,3.556,3.556,0,0,1-2.785-1.2A4.575,4.575,0,0,1,9.539,60.8Zm1.453.172a3.616,3.616,0,0,0,.652,2.258,2.211,2.211,0,0,0,3.5-.012,3.955,3.955,0,0,0,.648-2.418,3.61,3.61,0,0,0-.66-2.254,2.1,2.1,0,0,0-1.754-.863,2.075,2.075,0,0,0-1.727.852A3.925,3.925,0,0,0,10.992,60.867ZM22.664,60.7a4.968,4.968,0,0,1,.914-3.145,3.151,3.151,0,0,1,4.836-.074l.07-.937H29.8V64.8a3.439,3.439,0,0,1-.973,2.586,3.589,3.589,0,0,1-2.613.945,4.348,4.348,0,0,1-1.789-.391,3.08,3.08,0,0,1-1.336-1.07l.75-.867a2.826,2.826,0,0,0,2.273,1.148,2.214,2.214,0,0,0,1.645-.594,2.269,2.269,0,0,0,.59-1.672v-.727a2.971,2.971,0,0,1-2.367,1,2.887,2.887,0,0,1-2.4-1.2A5.224,5.224,0,0,1,22.664,60.7Zm1.453.164a3.79,3.79,0,0,0,.586,2.246,1.9,1.9,0,0,0,1.641.816,2.117,2.117,0,0,0,2.008-1.242V58.828a2.142,2.142,0,0,0-1.992-1.211,1.921,1.921,0,0,0-1.648.82A4.128,4.128,0,0,0,24.117,60.867Zm11.375,4.289a3.693,3.693,0,0,1-2.8-1.129,4.19,4.19,0,0,1-1.078-3.02v-.266A5.073,5.073,0,0,1,32.1,58.5a3.748,3.748,0,0,1,1.344-1.547,3.378,3.378,0,0,1,1.871-.559,3.166,3.166,0,0,1,2.563,1.086,4.7,4.7,0,0,1,.914,3.109v.6H33.063a3,3,0,0,0,.73,2.02,2.3,2.3,0,0,0,1.777.77,2.517,2.517,0,0,0,1.3-.312,3.258,3.258,0,0,0,.93-.828l.883.688A3.55,3.55,0,0,1,35.492,65.156Zm-.18-7.578a1.928,1.928,0,0,0-1.469.637A3.1,3.1,0,0,0,33.109,60h4.234v-.109a2.753,2.753,0,0,0-.594-1.707A1.815,1.815,0,0,0,35.313,57.578Zm6.516-1.031.047,1.063a3.08,3.08,0,0,1,2.531-1.219q2.68,0,2.7,3.023V65H45.664V59.406a1.946,1.946,0,0,0-.418-1.352,1.675,1.675,0,0,0-1.277-.437,2.086,2.086,0,0,0-1.234.375,2.546,2.546,0,0,0-.828.984V65H40.461V56.547ZM52.8,65.156A3.693,3.693,0,0,1,50,64.027a4.19,4.19,0,0,1-1.078-3.02v-.266A5.073,5.073,0,0,1,49.4,58.5a3.748,3.748,0,0,1,1.344-1.547,3.378,3.378,0,0,1,1.871-.559,3.166,3.166,0,0,1,2.563,1.086,4.7,4.7,0,0,1,.914,3.109v.6H50.367a3,3,0,0,0,.73,2.02,2.3,2.3,0,0,0,1.777.77,2.517,2.517,0,0,0,1.3-.312,3.258,3.258,0,0,0,.93-.828l.883.688A3.55,3.55,0,0,1,52.8,65.156Zm-.18-7.578a1.928,1.928,0,0,0-1.469.637A3.1,3.1,0,0,0,50.414,60h4.234v-.109a2.753,2.753,0,0,0-.594-1.707A1.815,1.815,0,0,0,52.617,57.578Zm9.234.266a4.331,4.331,0,0,0-.711-.055A1.9,1.9,0,0,0,59.211,59v6H57.766V56.547h1.406l.023.977a2.251,2.251,0,0,1,2.016-1.133,1.477,1.477,0,0,1,.641.109ZM68.086,65a3.036,3.036,0,0,1-.2-.891,3.225,3.225,0,0,1-2.406,1.047,2.984,2.984,0,0,1-2.051-.707,2.287,2.287,0,0,1-.8-1.793,2.39,2.39,0,0,1,1-2.051,4.733,4.733,0,0,1,2.824-.73h1.406v-.664A1.623,1.623,0,0,0,67.406,58a1.821,1.821,0,0,0-1.336-.449,2.107,2.107,0,0,0-1.3.391,1.151,1.151,0,0,0-.523.945H62.8a2,2,0,0,1,.449-1.223,3.066,3.066,0,0,1,1.219-.934,4.1,4.1,0,0,1,1.691-.344,3.342,3.342,0,0,1,2.289.73,2.635,2.635,0,0,1,.859,2.012v3.891a4.757,4.757,0,0,0,.3,1.852V65Zm-2.4-1.1a2.54,2.54,0,0,0,1.289-.352,2.127,2.127,0,0,0,.883-.914V60.9H66.727q-2.656,0-2.656,1.555a1.316,1.316,0,0,0,.453,1.063A1.742,1.742,0,0,0,65.688,63.9Zm9.969-6.055a4.331,4.331,0,0,0-.711-.055A1.9,1.9,0,0,0,73.016,59v6H71.57V56.547h1.406l.023.977a2.251,2.251,0,0,1,2.016-1.133,1.477,1.477,0,0,1,.641.109ZM86.164,65a3.036,3.036,0,0,1-.2-.891,3.225,3.225,0,0,1-2.406,1.047,2.984,2.984,0,0,1-2.051-.707,2.288,2.288,0,0,1-.8-1.793,2.39,2.39,0,0,1,1-2.051,4.733,4.733,0,0,1,2.824-.73h1.406v-.664A1.623,1.623,0,0,0,85.484,58a1.821,1.821,0,0,0-1.336-.449,2.107,2.107,0,0,0-1.3.391,1.151,1.151,0,0,0-.523.945H80.875a2,2,0,0,1,.449-1.223,3.066,3.066,0,0,1,1.219-.934,4.1,4.1,0,0,1,1.691-.344,3.342,3.342,0,0,1,2.289.73,2.635,2.635,0,0,1,.859,2.012v3.891a4.757,4.757,0,0,0,.3,1.852V65Zm-2.4-1.1a2.54,2.54,0,0,0,1.289-.352,2.127,2.127,0,0,0,.883-.914V60.9H84.8q-2.656,0-2.656,1.555a1.316,1.316,0,0,0,.453,1.063A1.742,1.742,0,0,0,83.766,63.9Zm7.242-7.352.039.938a3.122,3.122,0,0,1,2.508-1.094,2.417,2.417,0,0,1,2.414,1.359,3.2,3.2,0,0,1,1.1-.984,3.242,3.242,0,0,1,1.6-.375q2.781,0,2.828,2.945V65h-1.445V59.422a1.941,1.941,0,0,0-.414-1.355,1.823,1.823,0,0,0-1.391-.449,1.916,1.916,0,0,0-1.336.48,1.949,1.949,0,0,0-.617,1.293V65H94.836V59.461a1.613,1.613,0,0,0-1.8-1.844,1.934,1.934,0,0,0-1.945,1.211V65H89.641V56.547Zm19.82,4.32a5.026,5.026,0,0,1-.891,3.113,2.846,2.846,0,0,1-2.391,1.176,2.947,2.947,0,0,1-2.477-1.133L105,65h-1.328V53h1.445v4.477a2.93,2.93,0,0,1,2.414-1.086,2.863,2.863,0,0,1,2.418,1.164,5.177,5.177,0,0,1,.879,3.188Zm-1.445-.164a3.906,3.906,0,0,0-.57-2.281,1.888,1.888,0,0,0-1.641-.8,2.122,2.122,0,0,0-2.055,1.328V62.6a2.181,2.181,0,0,0,2.07,1.328,1.878,1.878,0,0,0,1.617-.8A4.153,4.153,0,0,0,109.383,60.7Zm4.836,4.3h-1.445V56.547h1.445Zm-1.562-10.7a.863.863,0,0,1,.215-.594.807.807,0,0,1,.637-.242.819.819,0,0,1,.641.242.854.854,0,0,1,.219.594.826.826,0,0,1-.219.586.834.834,0,0,1-.641.234.821.821,0,0,1-.637-.234A.834.834,0,0,1,112.656,54.3Zm3.531,6.4a4.968,4.968,0,0,1,.914-3.145,3.151,3.151,0,0,1,4.836-.074l.07-.937h1.32V64.8a3.439,3.439,0,0,1-.973,2.586,3.589,3.589,0,0,1-2.613.945,4.348,4.348,0,0,1-1.789-.391,3.08,3.08,0,0,1-1.336-1.07l.75-.867a2.826,2.826,0,0,0,2.273,1.148,2.214,2.214,0,0,0,1.645-.594,2.269,2.269,0,0,0,.59-1.672v-.727a2.971,2.971,0,0,1-2.367,1,2.887,2.887,0,0,1-2.4-1.2A5.224,5.224,0,0,1,116.188,60.7Zm1.453.164a3.79,3.79,0,0,0,.586,2.246,1.9,1.9,0,0,0,1.641.816,2.117,2.117,0,0,0,2.008-1.242V58.828a2.142,2.142,0,0,0-1.992-1.211,1.921,1.921,0,0,0-1.648.82A4.128,4.128,0,0,0,117.641,60.867Zm13.086,3.3a3.07,3.07,0,0,1-2.477.992,2.628,2.628,0,0,1-2.059-.785,3.4,3.4,0,0,1-.715-2.324v-5.5h1.445v5.461q0,1.922,1.563,1.922a2.163,2.163,0,0,0,2.2-1.234V56.547h1.445V65h-1.375Zm-4.4-9.875a.848.848,0,0,1,.215-.59.814.814,0,0,1,.637-.238.826.826,0,0,1,.641.238.839.839,0,0,1,.219.59.826.826,0,0,1-.219.586.834.834,0,0,1-.641.234.821.821,0,0,1-.637-.234A.834.834,0,0,1,126.328,54.289Zm3.359.016a.863.863,0,0,1,.215-.594.807.807,0,0,1,.637-.242.819.819,0,0,1,.641.242.854.854,0,0,1,.219.594.826.826,0,0,1-.219.586.834.834,0,0,1-.641.234.821.821,0,0,1-.637-.234A.834.834,0,0,1,129.688,54.3Zm8.148,10.852a3.693,3.693,0,0,1-2.8-1.129,4.19,4.19,0,0,1-1.078-3.02v-.266a5.073,5.073,0,0,1,.48-2.246,3.748,3.748,0,0,1,1.344-1.547,3.378,3.378,0,0,1,1.871-.559,3.166,3.166,0,0,1,2.563,1.086,4.7,4.7,0,0,1,.914,3.109v.6h-5.727a3,3,0,0,0,.73,2.02,2.3,2.3,0,0,0,1.777.77,2.517,2.517,0,0,0,1.3-.312,3.258,3.258,0,0,0,.93-.828l.883.688A3.55,3.55,0,0,1,137.836,65.156Zm-.18-7.578a1.928,1.928,0,0,0-1.469.637A3.1,3.1,0,0,0,135.453,60h4.234v-.109a2.753,2.753,0,0,0-.594-1.707A1.815,1.815,0,0,0,137.656,57.578Zm4.8,3.125a4.952,4.952,0,0,1,.922-3.129,3.137,3.137,0,0,1,4.766-.168V53h1.445V65h-1.328l-.07-.906a2.943,2.943,0,0,1-2.414,1.063,2.887,2.887,0,0,1-2.395-1.2,5.008,5.008,0,0,1-.926-3.141Zm1.445.164a3.749,3.749,0,0,0,.594,2.25,1.919,1.919,0,0,0,1.641.813,2.108,2.108,0,0,0,2.008-1.234V58.813a2.125,2.125,0,0,0-1.992-1.2,1.929,1.929,0,0,0-1.656.82A4.128,4.128,0,0,0,143.9,60.867ZM157.047,65a3.036,3.036,0,0,1-.2-.891,3.225,3.225,0,0,1-2.406,1.047,2.984,2.984,0,0,1-2.051-.707,2.287,2.287,0,0,1-.8-1.793,2.39,2.39,0,0,1,1-2.051,4.733,4.733,0,0,1,2.824-.73h1.406v-.664A1.623,1.623,0,0,0,156.367,58a1.821,1.821,0,0,0-1.336-.449,2.107,2.107,0,0,0-1.3.391,1.151,1.151,0,0,0-.523.945h-1.453a2,2,0,0,1,.449-1.223,3.066,3.066,0,0,1,1.219-.934,4.1,4.1,0,0,1,1.691-.344,3.342,3.342,0,0,1,2.289.73,2.635,2.635,0,0,1,.859,2.012v3.891a4.757,4.757,0,0,0,.3,1.852V65Zm-2.4-1.1a2.54,2.54,0,0,0,1.289-.352,2.127,2.127,0,0,0,.883-.914V60.9h-1.133q-2.656,0-2.656,1.555a1.316,1.316,0,0,0,.453,1.063A1.742,1.742,0,0,0,154.648,63.9Zm5.531-3.2a4.952,4.952,0,0,1,.922-3.129,3.137,3.137,0,0,1,4.766-.168V53h1.445V65h-1.328l-.07-.906a2.943,2.943,0,0,1-2.414,1.063,2.887,2.887,0,0,1-2.395-1.2,5.008,5.008,0,0,1-.926-3.141Zm1.445.164a3.749,3.749,0,0,0,.594,2.25,1.919,1.919,0,0,0,1.641.813,2.108,2.108,0,0,0,2.008-1.234V58.813a2.125,2.125,0,0,0-1.992-1.2,1.929,1.929,0,0,0-1.656.82A4.128,4.128,0,0,0,161.625,60.867Zm11.438,4.289a3.693,3.693,0,0,1-2.8-1.129,4.19,4.19,0,0,1-1.078-3.02v-.266a5.073,5.073,0,0,1,.48-2.246,3.748,3.748,0,0,1,1.344-1.547,3.378,3.378,0,0,1,1.871-.559,3.166,3.166,0,0,1,2.563,1.086,4.7,4.7,0,0,1,.914,3.109v.6h-5.727a3,3,0,0,0,.73,2.02,2.3,2.3,0,0,0,1.777.77,2.517,2.517,0,0,0,1.3-.312,3.258,3.258,0,0,0,.93-.828l.883.688A3.55,3.55,0,0,1,173.063,65.156Zm-.18-7.578a1.928,1.928,0,0,0-1.469.637A3.1,3.1,0,0,0,170.68,60h4.234v-.109a2.753,2.753,0,0,0-.594-1.707A1.815,1.815,0,0,0,172.883,57.578Zm10.07,5.18a1.064,1.064,0,0,0-.441-.91,4.249,4.249,0,0,0-1.539-.559,7.277,7.277,0,0,1-1.742-.562,2.479,2.479,0,0,1-.953-.781,1.869,1.869,0,0,1-.309-1.078,2.193,2.193,0,0,1,.879-1.758,3.432,3.432,0,0,1,2.246-.719,3.532,3.532,0,0,1,2.332.742,2.357,2.357,0,0,1,.895,1.9h-1.453a1.3,1.3,0,0,0-.5-1.023,1.888,1.888,0,0,0-1.27-.43,1.976,1.976,0,0,0-1.234.344,1.082,1.082,0,0,0-.445.9.877.877,0,0,0,.414.789,5.1,5.1,0,0,0,1.5.508,7.8,7.8,0,0,1,1.754.578,2.558,2.558,0,0,1,1,.809,1.988,1.988,0,0,1,.324,1.152,2.163,2.163,0,0,1-.906,1.816,3.8,3.8,0,0,1-2.352.684,4.257,4.257,0,0,1-1.8-.359,2.922,2.922,0,0,1-1.223-1,2.42,2.42,0,0,1-.441-1.395h1.445a1.5,1.5,0,0,0,.582,1.152,2.258,2.258,0,0,0,1.434.426,2.331,2.331,0,0,0,1.316-.332A1.02,1.02,0,0,0,182.953,62.758Zm3.359,1.484a.905.905,0,0,1,.223-.625.848.848,0,0,1,.668-.25.874.874,0,0,1,.676.25.887.887,0,0,1,.23.625.839.839,0,0,1-.23.6.89.89,0,0,1-.676.242.8.8,0,0,1-.891-.844Z" transform="translate(-7272 -8648)" fill="#12263f"/>
    <g id="Trazado_1046323" data-name="Trazado 1046323" transform="translate(-7314 -8666)" fill="none">
      <path d="M19,0H233a19,19,0,0,1,19,19V81a19,19,0,0,1-19,19H19A19,19,0,0,1,0,81V19A19,19,0,0,1,19,0Z" stroke="none"/>
      <path d="M 19 1 C 14.19203186035156 1 9.671829223632812 2.872329711914062 6.272064208984375 6.272064208984375 C 2.872329711914062 9.671836853027344 1 14.19203186035156 1 19 L 1 81 C 1 85.80796813964844 2.872329711914062 90.32817077636719 6.272064208984375 93.72793579101562 C 9.671829223632812 97.12767028808594 14.19203186035156 99 19 99 L 233 99 C 237.8079681396484 99 242.3281707763672 97.12767028808594 245.7279357910156 93.72793579101562 C 249.1276702880859 90.32817077636719 251 85.80796813964844 251 81 L 251 19 C 251 14.19203186035156 249.1276702880859 9.671836853027344 245.7279357910156 6.272064208984375 C 242.3281707763672 2.872329711914062 237.8079681396484 1 233 1 L 19 1 M 19 0 L 233 0 C 243.4933929443359 0 252 8.506599426269531 252 19 L 252 81 C 252 91.49340057373047 243.4933929443359 100 233 100 L 19 100 C 8.506607055664062 100 0 91.49340057373047 0 81 L 0 19 C 0 8.506599426269531 8.506607055664062 0 19 0 Z" stroke="none" fill="#7ecfe7"/>
    </g>
    <g id="Grupo_1182681" data-name="Grupo 1182681" transform="translate(-488 -542)">
      <text id="Alcanzable:_debe_ser_realista_y_posible_de_lograr_con_los_recursos_disponibles." data-name="Alcanzable: debe ser realista y posible de lograr con los recursos disponibles." transform="translate(-6784 -7892)" fill="#12263f" font-size="16" font-family="Roboto-Bold, Roboto" font-weight="700"><tspan x="0" y="17">Alcanzable: </tspan><tspan y="17" font-family="Roboto-Regular, Roboto" font-weight="400">debe ser </tspan><tspan x="0" y="41" font-family="Roboto-Regular, Roboto" font-weight="400">realista y posible de lograr </tspan><tspan x="0" y="65" font-family="Roboto-Regular, Roboto" font-weight="400">con los recursos </tspan><tspan x="0" y="89" font-family="Roboto-Regular, Roboto" font-weight="400">disponibles.</tspan></text>
      <g id="Rectángulo_425072" data-name="Rectángulo 425072" transform="translate(-6826 -7905)" fill="none" stroke="#9ae1b4" stroke-width="1">
        <rect width="252" height="117" rx="19" stroke="none"/>
        <rect x="0.5" y="0.5" width="251" height="116" rx="18.5" fill="none"/>
      </g>
    </g>
    <g id="Grupo_1182682" data-name="Grupo 1182682" transform="translate(-488 -542)">
      <text id="Medible:_debe_permitir_cuantificar_avances_y_resultados." data-name="Medible: debe permitir cuantificar avances y resultados." transform="translate(-6784 -7995)" fill="#12263f" font-size="16" font-family="Roboto-Bold, Roboto" font-weight="700"><tspan x="0" y="17">Medible: </tspan><tspan y="17" font-family="Roboto-Regular, Roboto" font-weight="400">debe permitir </tspan><tspan x="0" y="41" font-family="Roboto-Regular, Roboto" font-weight="400">cuantificar avances y </tspan><tspan x="0" y="65" font-family="Roboto-Regular, Roboto" font-weight="400">resultados</tspan><tspan y="65">.</tspan></text>
      <g id="Rectángulo_425071" data-name="Rectángulo 425071" transform="translate(-6826 -8014)" fill="none" stroke="#ff926d" stroke-width="1">
        <rect width="252" height="99" rx="19" stroke="none"/>
        <rect x="0.5" y="0.5" width="251" height="98" rx="18.5" fill="none"/>
      </g>
    </g>
    <g id="Grupo_1182680" data-name="Grupo 1182680" transform="translate(-488 -542)">
      <text id="Relevante:_debe_aportar_valor_y_estar_alineado_con_la_estrategia_organizacional." data-name="Relevante: debe aportar valor y estar alineado con la estrategia organizacional." transform="translate(-6784 -7766)" fill="#12263f" font-size="16" font-family="Roboto-Bold, Roboto" font-weight="700"><tspan x="0" y="17">Relevante: </tspan><tspan y="17" font-family="Roboto-Regular, Roboto" font-weight="400">debe aportar </tspan><tspan x="0" y="41" font-family="Roboto-Regular, Roboto" font-weight="400">valor y estar alineado con </tspan><tspan x="0" y="65" font-family="Roboto-Regular, Roboto" font-weight="400">la estrategia </tspan><tspan x="0" y="89" font-family="Roboto-Regular, Roboto" font-weight="400">organizacional.</tspan></text>
      <g id="Rectángulo_425073" data-name="Rectángulo 425073" transform="translate(-6826 -7779)" fill="none" stroke="#7351fa" stroke-width="1">
        <rect width="252" height="115" rx="19" stroke="none"/>
        <rect x="0.5" y="0.5" width="251" height="114" rx="18.5" fill="none"/>
      </g>
    </g>
    <g id="Grupo_1182679" data-name="Grupo 1182679" transform="translate(-488 -542)">
      <text id="Temporal:_debe_incluir_un_plazo_o_fecha_límite_para_su_cumplimiento." data-name="Temporal: debe incluir un plazo o fecha límite para su cumplimiento." transform="translate(-6784 -7636)" fill="#12263f" font-size="16" font-family="Roboto-Bold, Roboto" font-weight="700"><tspan x="0" y="17">Temporal: d</tspan><tspan y="17" font-family="Roboto-Regular, Roboto" font-weight="400">ebe incluir un </tspan><tspan x="0" y="41" font-family="Roboto-Regular, Roboto" font-weight="400">plazo o fecha límite para su </tspan><tspan x="0" y="65" font-family="Roboto-Regular, Roboto" font-weight="400">cumplimiento.</tspan></text>
      <g id="Rectángulo_425074" data-name="Rectángulo 425074" transform="translate(-6826 -7654)" fill="none" stroke="#ffd256" stroke-width="1">
        <rect width="252" height="100" rx="19" stroke="none"/>
        <rect x="0.5" y="0.5" width="251" height="99" rx="18.5" fill="none"/>
      </g>
    </g>
    <g id="Grupo_1182673" data-name="Grupo 1182673" transform="translate(-7704 -11805)">
      <rect id="Rectángulo_425069" data-name="Rectángulo 425069" width="53" height="52" rx="26" transform="translate(370 3168)" fill="#7ecfe7"/>
      <text id="S" transform="translate(384 3208)" fill="#fff" font-size="40" font-family="Roboto-Black, Roboto" font-weight="800"><tspan x="0" y="0">S</tspan></text>
    </g>
    <g id="Grupo_1182676" data-name="Grupo 1182676" transform="translate(-7704 -11581)">
      <rect id="Rectángulo_425069-2" data-name="Rectángulo 425069" width="53" height="52" rx="26" transform="translate(370 3168)" fill="#9ae1b4"/>
      <text id="A" transform="translate(384 3208)" fill="#fff" font-size="40" font-family="Roboto-Black, Roboto" font-weight="800"><tspan x="0" y="0">A</tspan></text>
    </g>
    <g id="Grupo_1182674" data-name="Grupo 1182674" transform="translate(-7704 -11700)">
      <rect id="Rectángulo_425069-3" data-name="Rectángulo 425069" width="53" height="52" rx="26" transform="translate(370 3168)" fill="#ff926d"/>
      <text id="M" transform="translate(379 3208)" fill="#fff" font-size="40" font-family="Roboto-Black, Roboto" font-weight="800"><tspan x="0" y="0">M</tspan></text>
    </g>
    <g id="Grupo_1182675" data-name="Grupo 1182675" transform="translate(-7704 -11457)">
      <rect id="Rectángulo_425069-4" data-name="Rectángulo 425069" width="53" height="52" rx="26" transform="translate(370 3168)" fill="#7351fa"/>
      <text id="R" transform="translate(384 3208)" fill="#fff" font-size="40" font-family="Roboto-Black, Roboto" font-weight="800"><tspan x="0" y="0">R</tspan></text>
    </g>
    <g id="Grupo_1182677" data-name="Grupo 1182677" transform="translate(-7704 -11345)">
      <rect id="Rectángulo_425069-5" data-name="Rectángulo 425069" width="53" height="52" rx="26" transform="translate(370 3168)" fill="#ffd256"/>
      <text id="T" transform="translate(384 3208)" fill="#fff" font-size="40" font-family="Roboto-Black, Roboto" font-weight="800"><tspan x="0" y="0">T</tspan></text>
    </g>
  </g>
</svg>
