<svg xmlns="http://www.w3.org/2000/svg" width="95.372" height="95.373" viewBox="0 0 95.372 95.373"><path d="M37.392,63.686a1.49,1.49,0,0,1-1.226-.644C35.547,62.147,21,40.989,21,32.392a16.392,16.392,0,1,1,32.784,0c0,8.6-14.547,29.755-15.166,30.65A1.49,1.49,0,0,1,37.392,63.686Zm0-44.706A13.427,13.427,0,0,0,23.98,32.392c0,5.8,8.774,20.179,13.412,27.147C42.03,52.571,50.8,38.195,50.8,32.392A13.427,13.427,0,0,0,37.392,18.98Z" transform="translate(10.294 7.843)" fill="#7351fa"/><path d="M41.511,83.316a1.2,1.2,0,0,1-.127,0A38.6,38.6,0,0,1,6.084,47.8a1.49,1.49,0,1,1,2.971-.235A35.625,35.625,0,0,0,41.637,80.341a1.492,1.492,0,0,1-.125,2.98Zm6.384,0a1.492,1.492,0,1,1-.125-2.98A35.66,35.66,0,0,0,80.34,47.779a1.49,1.49,0,0,1,2.968.253A38.633,38.633,0,0,1,48.024,83.31,1.268,1.268,0,0,1,47.9,83.316Zm-.188-5.961a1.492,1.492,0,1,1-.14-2.98A29.831,29.831,0,0,0,74.361,47.757a1.491,1.491,0,1,1,2.967.3A32.817,32.817,0,0,1,47.849,77.342a1.143,1.143,0,0,1-.142,0Zm-6.2-.018a1,1,0,0,1-.149-.007,32.68,32.68,0,0,1-16.327-6.4,1.49,1.49,0,0,1,1.788-2.384,29.677,29.677,0,0,0,14.836,5.812,1.492,1.492,0,0,1-.149,2.98ZM20.388,65.9a1.49,1.49,0,0,1-1.159-.551,32.586,32.586,0,0,1-7.153-17.517,1.49,1.49,0,1,1,2.965-.28,29.64,29.64,0,0,0,6.508,15.92A1.49,1.49,0,0,1,20.394,65.9ZM13.561,43.216h-.149a1.49,1.49,0,0,1-1.341-1.624A32.844,32.844,0,0,1,41.212,12.105a1.49,1.49,0,0,1,.314,2.964,29.855,29.855,0,0,0-26.491,26.8A1.49,1.49,0,0,1,13.561,43.216Zm62.305,0a1.49,1.49,0,0,1-1.481-1.35A29.665,29.665,0,0,0,68.317,26.5a1.49,1.49,0,1,1,2.357-1.821,32.61,32.61,0,0,1,6.667,16.9A1.49,1.49,0,0,1,76,43.216h-.142Zm5.983,0a1.49,1.49,0,0,1-1.49-1.371A35.651,35.651,0,0,0,47.924,9.091a1.5,1.5,0,0,1,.265-2.98,38.626,38.626,0,0,1,35.14,35.5,1.49,1.49,0,0,1-1.368,1.609h-.119Zm-74.279,0H7.452a1.49,1.49,0,0,1-1.368-1.6A39.043,39.043,0,0,1,41.608,6.084a1.49,1.49,0,1,1,.235,2.971A36.03,36.03,0,0,0,9.059,41.839a1.49,1.49,0,0,1-1.489,1.377Zm56.508-21.6a1.477,1.477,0,0,1-.921-.32A29.674,29.674,0,0,0,47.9,15.071a1.49,1.49,0,1,1,.314-2.963A32.626,32.626,0,0,1,65,18.963a1.49,1.49,0,0,1-.924,2.654Z" transform="translate(2.98 2.98)" fill="#7351fa"/><path d="M33.471,22.353A4.471,4.471,0,0,1,29,17.882V4.471a4.471,4.471,0,0,1,8.941,0V17.882A4.471,4.471,0,0,1,33.471,22.353Zm0-19.373a1.49,1.49,0,0,0-1.49,1.49V17.882a1.49,1.49,0,0,0,2.98,0V4.471A1.49,1.49,0,0,0,33.471,2.98Z" transform="translate(14.216)" fill="#7351fa"/><path d="M33.471,71.353A4.471,4.471,0,0,1,29,66.882V53.471a4.471,4.471,0,0,1,8.941,0V66.882A4.471,4.471,0,0,1,33.471,71.353Zm0-19.373a1.49,1.49,0,0,0-1.49,1.49V66.882a1.49,1.49,0,0,0,2.98,0V53.471A1.49,1.49,0,0,0,33.471,51.98Z" transform="translate(14.216 24.02)" fill="#7351fa"/><path d="M66.882,37.941H53.471a4.471,4.471,0,0,1,0-8.941H66.882a4.471,4.471,0,0,1,0,8.941ZM53.471,31.98a1.49,1.49,0,0,0,0,2.98H66.882a1.49,1.49,0,0,0,0-2.98Z" transform="translate(24.02 14.216)" fill="#7351fa"/><path d="M17.882,37.941H4.471a4.471,4.471,0,0,1,0-8.941H17.882a4.471,4.471,0,0,1,0,8.941ZM4.471,31.98a1.49,1.49,0,0,0,0,2.98H17.882a1.49,1.49,0,0,0,0-2.98Z" transform="translate(0 14.216)" fill="#7351fa"/><path d="M34.941,39.882a8.941,8.941,0,1,1,8.941-8.941A8.941,8.941,0,0,1,34.941,39.882Zm0-14.9A5.961,5.961,0,1,0,40.9,30.941,5.961,5.961,0,0,0,34.941,24.98Z" transform="translate(12.745 10.784)" fill="#7351fa"/><path d="M63.373,18.392a1.49,1.49,0,0,1-1.49-1.49V4.98H45.49a1.49,1.49,0,1,1,0-2.98H63.373a1.49,1.49,0,0,1,1.49,1.49V16.9A1.49,1.49,0,0,1,63.373,18.392Z" transform="translate(21.569 0.98)" fill="#7351fa"/><path d="M63.373,67.392H45.49a1.49,1.49,0,0,1,0-2.98H61.882V52.49a1.49,1.49,0,1,1,2.98,0V65.9A1.49,1.49,0,0,1,63.373,67.392Z" transform="translate(21.569 25)" fill="#7351fa"/><path d="M7.49,18.392A1.49,1.49,0,0,1,6,16.9V3.49A1.49,1.49,0,0,1,7.49,2H25.373a1.49,1.49,0,1,1,0,2.98H8.98V16.9A1.49,1.49,0,0,1,7.49,18.392Z" transform="translate(2.941 0.98)" fill="#7351fa"/><path d="M25.373,67.392H7.49A1.49,1.49,0,0,1,6,65.9V52.49a1.49,1.49,0,1,1,2.98,0V64.412H25.373a1.49,1.49,0,0,1,0,2.98Z" transform="translate(2.941 25)" fill="#7351fa"/></svg>