<svg xmlns="http://www.w3.org/2000/svg" width="99" height="96.465" viewBox="0 0 99 96.465">
  <g id="analisis" transform="translate(0 -6.558)">
    <path id="Trazado_1045944" data-name="Trazado 1045944" d="M139.882,92.729a4.84,4.84,0,1,0-3.862-1.931l-7.942,11.1a4.821,4.821,0,0,0-4.8,1.056l-5.294-3a4.834,4.834,0,1,0-9.451,0l-5.294,3a4.827,4.827,0,1,0,1.435,2.521l5.294-3a4.822,4.822,0,0,0,6.581,0l5.294,3a4.834,4.834,0,1,0,8.588-1.887l7.942-11.1A4.819,4.819,0,0,0,139.882,92.729Zm0-6.768a1.934,1.934,0,1,1-1.934,1.934A1.936,1.936,0,0,1,139.882,85.961Zm-39.93,22.463a1.934,1.934,0,1,1,1.934-1.934A1.936,1.936,0,0,1,99.951,108.424Zm13.31-7.557a1.934,1.934,0,1,1,1.934-1.934A1.936,1.936,0,0,1,113.261,100.867Zm13.31,7.557a1.934,1.934,0,1,1,1.934-1.934A1.936,1.936,0,0,1,126.572,108.424Z" transform="translate(-76.726 -61.71)" fill="#7351fa"/>
    <path id="Trazado_1045945" data-name="Trazado 1045945" d="M80.978,105.249H4.1a1.2,1.2,0,0,1-1.2-1.2V44.218a1.2,1.2,0,0,1,1.2-1.2h6.836a1.45,1.45,0,1,0,0-2.9H4.1a4.107,4.107,0,0,0-4.1,4.1v59.829a4.107,4.107,0,0,0,4.1,4.1h10v3.192a3.3,3.3,0,0,0,3.3,3.3H31.915L25.082,127.98a1.45,1.45,0,1,0,2.581,1.322l7.511-14.664H51.207L58.718,129.3A1.45,1.45,0,1,0,61.3,127.98l-6.833-13.341H68.982a3.3,3.3,0,0,0,3.3-3.3v-3.192h8.7a1.45,1.45,0,1,0,0-2.9Zm-11.6,6.092a.4.4,0,0,1-.4.4H17.4a.4.4,0,0,1-.4-.4v-3.192H69.379Z" transform="translate(0 -27.069)" fill="#7351fa"/>
    <path id="Trazado_1045946" data-name="Trazado 1045946" d="M80.521,15.947h65.539a1.2,1.2,0,0,1,1.2,1.2V30.938a1.45,1.45,0,1,0,2.9,0V17.149a4.107,4.107,0,0,0-4.1-4.1H115.021V10.2a3.642,3.642,0,0,0-3.638-3.638h-8.821A3.643,3.643,0,0,0,98.924,10.2v2.851h-18.4a1.45,1.45,0,1,0,0,2.9Zm21.3-5.751a.739.739,0,0,1,.738-.738h8.821a.739.739,0,0,1,.738.738v2.851h-10.3V10.2Z" transform="translate(-63.782)" fill="#7351fa"/>
    <path id="Trazado_1045947" data-name="Trazado 1045947" d="M98.852,267.576a1.45,1.45,0,0,0-1.45,1.45V281.84a1.45,1.45,0,0,0,1.45,1.45h5.883a1.45,1.45,0,0,0,1.45-1.45V269.026a1.45,1.45,0,0,0-1.45-1.45Zm4.433,12.814H100.3v-9.914h2.983Z" transform="translate(-78.568 -210.548)" fill="#7351fa"/>
    <path id="Trazado_1045948" data-name="Trazado 1045948" d="M167.687,229.248a1.45,1.45,0,0,0-1.45,1.45v20.226a1.45,1.45,0,0,0,1.45,1.45h5.883a1.45,1.45,0,0,0,1.45-1.45V230.7a1.45,1.45,0,0,0-1.45-1.45Zm4.433,20.226h-2.983V232.148h2.983Z" transform="translate(-134.094 -179.631)" fill="#7351fa"/>
    <path id="Trazado_1045949" data-name="Trazado 1045949" d="M236.523,267.576a1.45,1.45,0,0,0-1.45,1.45V281.84a1.45,1.45,0,0,0,1.45,1.45h5.883a1.45,1.45,0,0,0,1.45-1.45V269.026a1.45,1.45,0,0,0-1.45-1.45Zm4.433,12.814h-2.983v-9.914h2.983Z" transform="translate(-189.619 -210.548)" fill="#7351fa"/>
    <path id="Trazado_1045950" data-name="Trazado 1045950" d="M305.359,311.832a1.45,1.45,0,0,0-1.45,1.45v4.257a1.45,1.45,0,0,0,1.45,1.45h5.883a1.45,1.45,0,1,0,0-2.9h-4.433v-2.807A1.45,1.45,0,0,0,305.359,311.832Z" transform="translate(-245.145 -246.246)" fill="#7351fa"/>
    <path id="Trazado_1045951" data-name="Trazado 1045951" d="M336.649,190.792l-8.32-14.41a18.964,18.964,0,1,0-18.752,5.351,19.059,19.059,0,0,0,4.936.654,18.716,18.716,0,0,0,4.269-.493l8.318,14.411a5.513,5.513,0,1,0,9.548-5.513Zm-26.321-11.86a16.054,16.054,0,1,1,12.182-1.6A15.95,15.95,0,0,1,310.328,178.932Zm22.853,16.879a2.615,2.615,0,0,1-3.569-.956l-8-13.865a19.036,19.036,0,0,0,4.522-2.614l8.005,13.865a2.61,2.61,0,0,1-.956,3.569Z" transform="translate(-238.389 -111.249)" fill="#7351fa"/>
    <path id="Trazado_1045952" data-name="Trazado 1045952" d="M349.224,189.1a13.724,13.724,0,0,0-.687-9.942,1.45,1.45,0,1,0-2.624,1.236,10.862,10.862,0,1,1-3.275-4.046,1.45,1.45,0,1,0,1.75-2.313,13.771,13.771,0,1,0,4.835,15.065Z" transform="translate(-259.98 -132.84)" fill="#7351fa"/>
  </g>
</svg>
