<svg xmlns="http://www.w3.org/2000/svg" width="92.392" height="92.392" viewBox="0 0 92.392 92.392"><path d="M34.451,47.824a4.476,4.476,0,0,1-4.471-4.471H27a7.465,7.465,0,0,0,5.961,7.3v3.131h2.98V50.653A7.451,7.451,0,0,0,34.451,35.9a4.471,4.471,0,1,1,4.471-4.471H41.9a7.465,7.465,0,0,0-5.961-7.3V21h-2.98v3.131a7.451,7.451,0,0,0,1.49,14.751,4.471,4.471,0,0,1,0,8.941Z" transform="translate(11.745 8.804)" fill="#7351fa"/><path d="M38.863,59.725A20.863,20.863,0,1,0,18,38.863,20.886,20.886,0,0,0,38.863,59.725Zm0-38.745A17.882,17.882,0,1,1,20.98,38.863,17.9,17.9,0,0,1,38.863,20.98Z" transform="translate(7.333 7.333)" fill="#7351fa"/><path d="M29.49,12.922h8.941a1.49,1.49,0,0,0,1.49-1.49V2.49A1.49,1.49,0,0,0,38.431,1H29.49A1.49,1.49,0,0,0,28,2.49v8.941A1.49,1.49,0,0,0,29.49,12.922ZM30.98,3.98h5.961V9.941H30.98Z" transform="translate(12.235 -1)" fill="#7351fa"/><path d="M65.431,1H56.49A1.49,1.49,0,0,0,55,2.49v8.941a1.49,1.49,0,0,0,1.49,1.49h8.941a1.49,1.49,0,0,0,1.49-1.49V2.49A1.49,1.49,0,0,0,65.431,1Zm-1.49,8.941H57.98V3.98h5.961Z" transform="translate(25.471 -1)" fill="#7351fa"/><path d="M2.49,12.922h8.941a1.49,1.49,0,0,0,1.49-1.49V2.49A1.49,1.49,0,0,0,11.431,1H2.49A1.49,1.49,0,0,0,1,2.49v8.941A1.49,1.49,0,0,0,2.49,12.922ZM3.98,3.98H9.941V9.941H3.98Z" transform="translate(-1 -1)" fill="#7351fa"/><path d="M28,56.49v8.941a1.49,1.49,0,0,0,1.49,1.49h8.941a1.49,1.49,0,0,0,1.49-1.49V56.49A1.49,1.49,0,0,0,38.431,55H29.49A1.49,1.49,0,0,0,28,56.49Zm2.98,1.49h5.961v5.961H30.98Z" transform="translate(12.235 25.471)" fill="#7351fa"/><path d="M65.431,55H56.49A1.49,1.49,0,0,0,55,56.49v8.941a1.49,1.49,0,0,0,1.49,1.49h8.941a1.49,1.49,0,0,0,1.49-1.49V56.49A1.49,1.49,0,0,0,65.431,55Zm-1.49,8.941H57.98V57.98h5.961Z" transform="translate(25.471 25.471)" fill="#7351fa"/><path d="M2.49,66.922h8.941a1.49,1.49,0,0,0,1.49-1.49V56.49A1.49,1.49,0,0,0,11.431,55H2.49A1.49,1.49,0,0,0,1,56.49v8.941A1.49,1.49,0,0,0,2.49,66.922ZM3.98,57.98H9.941v5.961H3.98Z" transform="translate(-1 25.471)" fill="#7351fa"/><path d="M65.431,28H56.49A1.49,1.49,0,0,0,55,29.49v8.941a1.49,1.49,0,0,0,1.49,1.49h8.941a1.49,1.49,0,0,0,1.49-1.49V29.49A1.49,1.49,0,0,0,65.431,28Zm-1.49,8.941H57.98V30.98h5.961Z" transform="translate(25.471 12.235)" fill="#7351fa"/><path d="M2.49,39.922h8.941a1.49,1.49,0,0,0,1.49-1.49V29.49A1.49,1.49,0,0,0,11.431,28H2.49A1.49,1.49,0,0,0,1,29.49v8.941A1.49,1.49,0,0,0,2.49,39.922ZM3.98,30.98H9.941v5.961H3.98Z" transform="translate(-1 12.235)" fill="#7351fa"/><path d="M31,11h2.98v2.98H31Z" transform="translate(13.706 3.902)" fill="#7351fa"/><path d="M31,14h2.98v2.98H31Z" transform="translate(13.706 5.373)" fill="#7351fa"/><path d="M31,48h2.98v2.98H31Z" transform="translate(13.706 22.039)" fill="#7351fa"/><path d="M31,51h2.98v2.98H31Z" transform="translate(13.706 23.51)" fill="#7351fa"/><path d="M51,31h2.98v2.98H51Z" transform="translate(23.51 13.706)" fill="#7351fa"/><path d="M48,31h2.98v2.98H48Z" transform="translate(22.039 13.706)" fill="#7351fa"/><path d="M14,31h2.98v2.98H14Z" transform="translate(5.373 13.706)" fill="#7351fa"/><path d="M11,31h2.98v2.98H11Z" transform="translate(3.902 13.706)" fill="#7351fa"/><path d="M44.4,27.446,56.758,15.088v2.363h2.98V11.49A1.49,1.49,0,0,0,58.249,10H52.288v2.98h2.363L42.293,25.339Z" transform="translate(19.242 3.412)" fill="#7351fa"/><path d="M11,59.249a1.49,1.49,0,0,0,1.49,1.49h5.961v-2.98H16.088L28.446,45.4l-2.107-2.107L13.98,55.651V53.288H11Z" transform="translate(3.902 19.732)" fill="#7351fa"/><path d="M60.739,52.288h-2.98v2.363L45.4,42.293,43.293,44.4,55.651,56.758H53.288v2.98h5.961a1.49,1.49,0,0,0,1.49-1.49Z" transform="translate(19.732 19.242)" fill="#7351fa"/><path d="M12.98,15.088,25.339,27.446l2.107-2.107L15.088,12.98h2.363V10H11.49A1.49,1.49,0,0,0,10,11.49v5.961h2.98Z" transform="translate(3.412 3.412)" fill="#7351fa"/></svg>