<svg xmlns="http://www.w3.org/2000/svg" width="90" height="90" viewBox="0 0 90 90">
  <g id="_OUTLINE" data-name="/ OUTLINE" transform="translate(-16 -16)">
    <path id="Trazado_1045931" data-name="Trazado 1045931" d="M108.5,61h15.919l-2,6H119v3h27V67h-3.419l-2-6H156.5a4.505,4.505,0,0,0,4.5-4.5v-36a4.505,4.505,0,0,0-4.5-4.5h-48a4.505,4.505,0,0,0-4.5,4.5v36a4.505,4.505,0,0,0,4.5,4.5Zm17.081,6,2-6h9.838l2,6ZM107,20.5a1.5,1.5,0,0,1,1.5-1.5h48a1.5,1.5,0,0,1,1.5,1.5V52H107ZM107,55h51v1.5a1.5,1.5,0,0,1-1.5,1.5h-48a1.5,1.5,0,0,1-1.5-1.5Z" transform="translate(-71.5)" fill="#7351fa"/>
    <path id="Trazado_1045932" data-name="Trazado 1045932" d="M49,340.5a4.505,4.505,0,0,0-4.5-4.5h-21a4.505,4.505,0,0,0-4.5,4.5V357H16v4.5a4.505,4.505,0,0,0,4.5,4.5h27a4.505,4.505,0,0,0,4.5-4.5V357H49Zm-27,0a1.5,1.5,0,0,1,1.5-1.5h21a1.5,1.5,0,0,1,1.5,1.5V357H22Zm27,21a1.5,1.5,0,0,1-1.5,1.5h-27a1.5,1.5,0,0,1-1.5-1.5V360H49Z" transform="translate(0 -260)" fill="#7351fa"/>
    <path id="Trazado_1045933" data-name="Trazado 1045933" d="M262,328.739a4.5,4.5,0,1,0-3,0v9.879l3.439,3.439,2.121-2.121L262,337.376ZM260.5,326a1.5,1.5,0,1,1,1.5-1.5,1.5,1.5,0,0,1-1.5,1.5Z" transform="translate(-194.998 -246.997)" fill="#7351fa"/>
    <path id="Trazado_1045934" data-name="Trazado 1045934" d="M337,357V340.5a4.505,4.505,0,0,0-4.5-4.5h-21a4.505,4.505,0,0,0-4.5,4.5V357h-3v4.5a4.505,4.505,0,0,0,4.5,4.5h27a4.505,4.505,0,0,0,4.5-4.5V357Zm-27-16.5a1.5,1.5,0,0,1,1.5-1.5h21a1.5,1.5,0,0,1,1.5,1.5V357H310Zm27,21a1.5,1.5,0,0,1-1.5,1.5h-27a1.5,1.5,0,0,1-1.5-1.5V360h30Z" transform="translate(-234 -260)" fill="#7351fa"/>
    <path id="Trazado_1045935" data-name="Trazado 1045935" d="M36.5,133.4a4.5,4.5,0,0,0,1.5-8.742V96.525l4.061-4.061-2.121-2.121L35,95.283v29.379a4.5,4.5,0,0,0,1.5,8.742Zm0-6a1.5,1.5,0,1,1-1.5,1.5,1.5,1.5,0,0,1,1.5-1.5Z" transform="translate(-13 -60.404)" fill="#7351fa"/>
    <path id="Trazado_1045936" data-name="Trazado 1045936" d="M430.4,124.662a4.5,4.5,0,1,0,3,0V95.283l-4.939-4.939-2.121,2.121,4.061,4.061Zm1.5,2.742a1.5,1.5,0,1,1-1.5,1.5,1.5,1.5,0,0,1,1.5-1.5Z" transform="translate(-333.403 -60.404)" fill="#7351fa"/>
    <path id="Trazado_1045937" data-name="Trazado 1045937" d="M207.579,65.08,211,64.26V58.74l-3.42-.82-.419-1.012L209,53.9,205.1,50l-3.009,1.844-1.012-.419L200.26,48h-5.52l-.82,3.421-1.012.419L189.9,50,186,53.9l1.844,3.009-.419,1.012L184,58.74v5.52l3.42.82.42,1.012L186,69.1l3.9,3.9,3.009-1.844,1.012.419L194.74,75h5.52l.82-3.421,1.012-.419L205.1,73l3.9-3.9-1.844-3.009Zm-2.369,3.572-.558.558-2.3-1.407-3.837,1.59L197.894,72h-.788l-.625-2.607-3.837-1.59-2.3,1.407-.558-.558,1.407-2.3-1.59-3.837L187,61.894v-.789l2.607-.625,1.59-3.837-1.407-2.3.558-.558,2.3,1.407,3.837-1.59L197.106,51h.788l.625,2.607,3.837,1.59,2.3-1.407.558.558-1.407,2.3,1.59,3.837,2.607.625v.789l-2.607.625-1.59,3.837Z" transform="translate(-136.5 -26)" fill="#7351fa"/>
    <path id="Trazado_1045938" data-name="Trazado 1045938" d="M236.5,96a4.5,4.5,0,1,0,4.5,4.5A4.5,4.5,0,0,0,236.5,96Zm0,6a1.5,1.5,0,1,1,1.5-1.5A1.5,1.5,0,0,1,236.5,102Z" transform="translate(-175.5 -65)" fill="#7351fa"/>
    <path id="Trazado_1045939" data-name="Trazado 1045939" d="M155,63.665a16.47,16.47,0,0,1,4.2-11l-2.235-2a19.527,19.527,0,0,0-3.856,19.5l2.829-1a16.458,16.458,0,0,1-.939-5.5Z" transform="translate(-110.498 -28.165)" fill="#7351fa"/>
    <path id="Trazado_1045940" data-name="Trazado 1045940" d="M165.918,165.5a19.588,19.588,0,0,0,2.356,3.249l2.235-2a16.576,16.576,0,0,1-1.995-2.751Z" transform="translate(-121.808 -120.245)" fill="#7351fa"/>
    <path id="Trazado_1045941" data-name="Trazado 1045941" d="M324.857,86.333a16.527,16.527,0,0,1-3.262,16.5l2.235,2a19.528,19.528,0,0,0,3.856-19.5Z" transform="translate(-248.296 -56.333)" fill="#7351fa"/>
    <path id="Trazado_1045942" data-name="Trazado 1045942" d="M326.517,54.355a19.6,19.6,0,0,0-2.266-3.148L322,53.192a16.592,16.592,0,0,1,1.918,2.665Z" transform="translate(-248.627 -28.606)" fill="#7351fa"/>
    <path id="Trazado_1045943" data-name="Trazado 1045943" d="M214,335.662v-9.879l-3.439-3.439-2.121,2.121L211,327.025v8.637a4.5,4.5,0,1,0,3,0Zm-1.5,5.742a1.5,1.5,0,1,1,1.5-1.5A1.5,1.5,0,0,1,212.5,341.4Z" transform="translate(-155.998 -248.904)" fill="#7351fa"/>
  </g>
</svg>
