<svg xmlns="http://www.w3.org/2000/svg" width="97.167" height="96.779" viewBox="0 0 97.167 96.779">
  <g id="Genealogy" transform="translate(-4.25 -4.328)">
    <path id="Trazado_1045917" data-name="Trazado 1045917" d="M17.157,46.64c1.563,3.282,3.4,4.947,5.473,4.947h.007c3.266-.007,5.582-4.205,6.18-5.414,2.845-2.127,3.031-4.839,1.375-7.093a3.714,3.714,0,0,0-1.313-5.157l1.3-2.139a1.1,1.1,0,0,0-1.124-1.657c-3.379.554-4.882.866-5.355.866-3.655,0-5,1.276-5.493,2.125-2.7,1.073-3.265,3.952-2.577,6.775-1.676,2.445.135,5.355,1.526,6.749Zm.73-6.859c-.009-.022-.724-2.241.023-3.656.7-1.331,2-.759,2.181-1.862.11-.3.972-1.068,3.607-1.068.584,0-.089.077,3.348-.5l-.654,1.074a1.1,1.1,0,0,0,.565,1.607,2.753,2.753,0,0,1,1.524,1.361,2.136,2.136,0,0,1-.543,1.8,1.11,1.11,0,0,0,.142,1.45,3.155,3.155,0,0,1,.956,2.187,3.44,3.44,0,0,1-1.725,2.373,1.105,1.105,0,0,0-.367.44c-.523,1.14-2.44,4.395-4.311,4.4-.147-.084-1.636.3-3.564-3.857a1.128,1.128,0,0,0-.242-.337c-.027-.026-2.721-2.627-1.173-4.311a1.1,1.1,0,0,0,.234-1.1Z" transform="translate(4.779 11.797)" fill="#7351fa" stroke="#7351fa" stroke-width="1"/>
    <path id="Trazado_1045918" data-name="Trazado 1045918" d="M33.98,16.731l.069.347a2.575,2.575,0,0,0,1.96,2.01c.921,3.021,3.833,5.608,6.79,4.674a6.529,6.529,0,0,0,4.61-4.687,2.574,2.574,0,0,0,1.9-2l.069-.353a2.565,2.565,0,0,0-1.042-2.578l.125-.685c1.53-2.451.533-4.758-1.977-5.953a4.993,4.993,0,0,0-5.772-2.394,13.319,13.319,0,0,0-3.792,1.809,5.031,5.031,0,0,0-1.766,6.091v1.031a2.588,2.588,0,0,0-1.176,2.685Zm2.445-.857.066-.014a1.1,1.1,0,0,0,.867-1.075c-.025-1.814.072-2.075-.095-2.446l-.065-.146a2.823,2.823,0,0,1,.976-3.455A9.185,9.185,0,0,1,42.11,7.113a2.827,2.827,0,0,1,2.566,1.693,1.114,1.114,0,0,0,.628.588,2.9,2.9,0,0,1,1.633,1.421,1.916,1.916,0,0,1-.429,1.614c-.223.33-.17.55-.489,2.156a1.165,1.165,0,0,0,.919,1.289.366.366,0,0,1,.281.427l-.069.351a.364.364,0,0,1-.357.294h-.321a1.1,1.1,0,0,0-1.1.982,4.3,4.3,0,0,1-3.242,3.734c-1.808.564-3.82-1.691-4.157-3.768a1.1,1.1,0,0,0-1.09-.948h-.321c-.416,0-.369-.5-.427-.644a.369.369,0,0,1,.284-.43Z" transform="translate(13.663)" fill="#7351fa" stroke="#7351fa" stroke-width="1"/>
    <path id="Trazado_1045919" data-name="Trazado 1045919" d="M57.961,28.661h-.019a4.821,4.821,0,0,0-4.7,6.507c-6.19,4.161-5.737,14.339.6,17.891l-.71,1.609a1.1,1.1,0,0,0,2.013.889l1.143-2.584a1.1,1.1,0,0,0-.688-1.505,7.737,7.737,0,0,1-4.427-5.942c1.854-.535,5.844-1.855,8.183-3.869A16.969,16.969,0,0,0,64.5,45.907a7.679,7.679,0,0,1-4.07,5.44,1.1,1.1,0,0,0-.536,1.448l1.163,2.582a1.1,1.1,0,0,0,2.007-.9l-.746-1.656c5.925-3.738,6.236-13.4.322-17.548a4.827,4.827,0,0,0-4.681-6.608Zm-.01,2.2h.01a2.64,2.64,0,0,1,2.717,3.372,8.123,8.123,0,0,0-5.46-.063,2.649,2.649,0,0,1,2.733-3.309Zm6.738,12.61a16.134,16.134,0,0,1-4.308-4.112A1.1,1.1,0,0,0,58.59,39.3c-1.366,1.779-5.118,3.226-7.513,3.961.312-4.461,3.472-7.316,6.769-7.326h.022c3.749,0,6.619,3.414,6.821,7.54Z" transform="translate(20.641 11.12)" fill="#7351fa" stroke="#7351fa" stroke-width="1"/>
    <path id="Trazado_1045920" data-name="Trazado 1045920" d="M69.827,29.188a1.1,1.1,0,0,0,2.2,0V24.566a1.1,1.1,0,0,0-1.1-1.1l-22.067,0-.009-2.74a1.1,1.1,0,0,0-1.1-1.1h0a1.1,1.1,0,0,0-1.1,1.105l.009,2.732-24.607.005a1.1,1.1,0,0,0-1.1,1.1l.014,4.623a1.1,1.1,0,0,0,1.1,1.1h0a1.1,1.1,0,0,0,1.1-1.1l-.011-3.519,46.671-.01Z" transform="translate(7.585 6.893)" fill="#7351fa" stroke="#7351fa" stroke-width="1"/>
    <path id="Trazado_1045921" data-name="Trazado 1045921" d="M38.308,52.777v2.2a1.1,1.1,0,1,0,2.2,0v-3.3a1.1,1.1,0,0,0-1.1-1.1H26.451l-.006-1.637a1.1,1.1,0,0,0-1.1-1.1h0a1.1,1.1,0,0,0-1.1,1.105l.006,1.629H11.289a1.1,1.1,0,0,0-1.1,1.1l.01,3.3a1.1,1.1,0,0,0,1.1,1.1h0a1.1,1.1,0,0,0,1.1-1.1l-.007-2.2Z" transform="translate(2.546 20.1)" fill="#7351fa" stroke="#7351fa" stroke-width="1"/>
    <path id="Trazado_1045922" data-name="Trazado 1045922" d="M8.406,57.641a4.613,4.613,0,0,0,3.27,7.853h.014a4.607,4.607,0,0,0-.019-9.215,4.528,4.528,0,0,0-3.266,1.362Zm4.975,4.939a2.4,2.4,0,1,1-1.716-4.1h.007a2.408,2.408,0,0,1,1.709,4.1Z" transform="translate(1.085 24.051)" fill="#7351fa" stroke="#7351fa" stroke-width="1"/>
    <path id="Trazado_1045923" data-name="Trazado 1045923" d="M5.854,73.2H5.86a1.1,1.1,0,0,0,1.1-1.107l0-.608a5.837,5.837,0,0,1,5.81-5.85h.02a5.828,5.828,0,0,1,5.828,5.811l0,.609a1.1,1.1,0,0,0,1.1,1.1h.006a1.1,1.1,0,0,0,1.1-1.107l0-.608A8.031,8.031,0,1,0,4.75,71.5l0,.609a1.1,1.1,0,0,0,1.1,1.1Z" transform="translate(0 27.403)" fill="#7351fa" stroke="#7351fa" stroke-width="1"/>
    <path id="Trazado_1045924" data-name="Trazado 1045924" d="M31.268,65.429a4.612,4.612,0,1,0-.014,0Zm-1.723-6.3a2.4,2.4,0,0,1,3.4-.011,2.455,2.455,0,0,1,.71,1.7,2.406,2.406,0,0,1-2.394,2.413h-.007a2.408,2.408,0,0,1-1.709-4.1Z" transform="translate(10.251 24.015)" fill="#7351fa" stroke="#7351fa" stroke-width="1"/>
    <path id="Trazado_1045925" data-name="Trazado 1045925" d="M24.327,71.429v.609a1.1,1.1,0,0,0,1.1,1.1h0a1.1,1.1,0,0,0,1.1-1.1v-.611a5.836,5.836,0,0,1,5.808-5.85h.02a5.828,5.828,0,0,1,5.83,5.808v.609a1.1,1.1,0,0,0,1.1,1.1h0a1.1,1.1,0,0,0,1.1-1.1v-.611a8.041,8.041,0,0,0-8.034-8h-.027a8.041,8.041,0,0,0-8,8.059Z" transform="translate(9.166 27.37)" fill="#7351fa" stroke="#7351fa" stroke-width="1"/>
    <path id="Trazado_1045926" data-name="Trazado 1045926" d="M73.29,54.859a1.1,1.1,0,0,0,2.2,0v-3.3a1.1,1.1,0,0,0-1.1-1.1H60.837l-.005-1.636a1.1,1.1,0,0,0-1.1-1.1h0a1.1,1.1,0,0,0-1.1,1.1l.005,1.63H46.27a1.1,1.1,0,0,0-1.1,1.1l.01,3.3a1.1,1.1,0,0,0,1.1,1.1h0a1.1,1.1,0,0,0,1.1-1.1l-.007-2.194H73.29Z" transform="translate(18.924 20.046)" fill="#7351fa" stroke="#7351fa" stroke-width="1"/>
    <path id="Trazado_1045927" data-name="Trazado 1045927" d="M47.374,56.161h-.017a4.61,4.61,0,1,0,.017,0Zm.007,7.011h-.009a2.4,2.4,0,1,1,.009,0Z" transform="translate(17.799 23.996)" fill="#7351fa" stroke="#7351fa" stroke-width="1"/>
    <path id="Trazado_1045928" data-name="Trazado 1045928" d="M54.139,65.654a8.046,8.046,0,0,0-13.691,5.725v.609a1.1,1.1,0,0,0,1.1,1.1h0a1.1,1.1,0,0,0,1.1-1.1v-.611a5.839,5.839,0,0,1,9.936-4.155,6.048,6.048,0,0,1,1.723,4.723,1.1,1.1,0,0,0,1.1,1.1h0a1.1,1.1,0,0,0,1.1-1.1v-.609a7.98,7.98,0,0,0-2.371-5.671Z" transform="translate(16.714 27.347)" fill="#7351fa" stroke="#7351fa" stroke-width="1"/>
    <path id="Trazado_1045929" data-name="Trazado 1045929" d="M70.841,60.685a4.605,4.605,0,0,0-4.6-4.59H66.22a4.607,4.607,0,1,0,4.621,4.59ZM66.228,58.3h.009a2.4,2.4,0,0,1,2.4,2.394h0a2.4,2.4,0,1,1-2.412-2.4Z" transform="translate(26.627 23.965)" fill="#7351fa" stroke="#7351fa" stroke-width="1"/>
    <path id="Trazado_1045930" data-name="Trazado 1045930" d="M73,65.588a8.043,8.043,0,0,0-13.69,5.727v.609a1.1,1.1,0,0,0,1.1,1.1h0a1.1,1.1,0,0,0,1.1-1.1v-.611a5.837,5.837,0,0,1,9.936-4.157,6.055,6.055,0,0,1,1.723,4.724,1.1,1.1,0,0,0,1.1,1.1h0a1.1,1.1,0,0,0,1.1-1.1A8.062,8.062,0,0,0,73,65.588Z" transform="translate(25.544 27.316)" fill="#7351fa" stroke="#7351fa" stroke-width="1"/>
  </g>
</svg>
